<?xml version="1.0" encoding="UTF-8"?>
<svg width="432px" height="432px" viewBox="0 0 432 432" version="1.1" xmlns="http://www.w3.org/2000/svg" xmlns:xlink="http://www.w3.org/1999/xlink">
    <title>G Graphic@1x</title>
    <defs>
        <polygon id="path-1" points="0 0 135.774837 0 135.774837 135.496324 0 135.496324"></polygon>
    </defs>
    <g id="LDS_PC" stroke="none" stroke-width="1" fill="none" fill-rule="evenodd">
        <g id="1_LDS_Main_Effect" transform="translate(-1128.000000, -1244.000000)">
            <g id="body_2" transform="translate(359.999720, 1244.000000)">
                <g id="G-Graphic" transform="translate(768.000280, 0.000000)">
                    <rect id="Rectangle" x="0" y="0" width="432" height="432"></rect>
                    <g id="Group-28" transform="translate(73.504478, 69.635821)">
                        <g id="Group-3" transform="translate(0.000000, 154.291551)">
                            <mask id="mask-2" fill="white">
                                <use xlink:href="#path-1"></use>
                            </mask>
                            <g id="Clip-2"></g>
                            <path d="M67.8920866,5.610388 L67.7133834,5.610388 C33.3805143,5.70618667 5.52753584,33.658534 5.62329382,67.9222121 C5.72049723,102.123289 33.6371625,129.885936 67.8863833,129.885936 L68.0622348,129.885936 C102.394153,129.789189 130.247132,101.836842 130.151374,67.5741119 C130.10455,50.9772279 123.583785,35.3914467 111.790327,23.6878833 C100.040595,12.0270025 84.4563485,5.610388 67.8920866,5.610388 L67.8920866,5.610388 Z M67.8863833,135.496324 C30.5402748,135.496324 0.105605962,105.230581 -0.000174137023,67.9383366 C-0.104465304,30.5806457 30.2646156,0.103386693 67.6972241,0 L67.8920866,0 C85.9534628,0 102.94262,6.99425208 115.756967,19.7089184 C128.614089,32.4700612 135.723243,49.4624705 135.774837,67.5579874 C135.878182,104.91473 105.510052,135.391989 68.0783941,135.496324 L67.8863833,135.496324 Z" id="Fill-1" fill="#000703" mask="url(#mask-2)"></path>
                        </g>
                        <polygon id="Fill-4" fill="#000703" points="65.2590666 286.990648 64.8940559 157.104712 70.5165516 157.088587 70.8815623 286.974523"></polygon>
                        <polygon id="Fill-6" fill="#000703" points="2.81989782 224.794257 2.80373849 219.183869 132.952869 218.818695 132.969979 224.430032"></polygon>
                        <polygon id="Fill-8" fill="#000703" points="10.8081191 193.644605 10.7919598 188.034217 124.789366 187.716469 124.805526 193.326857"></polygon>
                        <polygon id="Fill-10" fill="#000703" points="10.7284631 255.898665 10.7123038 250.288277 124.963507 249.968632 124.980617 255.57902"></polygon>
                        <path d="M67.7726026,159.901939 L67.7136686,159.901939 C47.6970137,159.9579 31.4920592,187.877998 31.5876402,222.140728 C31.6346415,238.985171 35.6041329,254.770138 42.7665175,266.585624 C49.6427869,277.932551 58.6036097,284.177487 68.003586,284.177487 L68.06252,284.177487 C77.4834083,284.150929 86.4309234,277.853825 93.2577643,266.446194 C100.35361,254.588974 104.234701,238.78314 104.187605,221.937749 C104.139646,205.093306 100.170155,189.309288 93.0087205,177.492852 C86.1324511,166.146874 77.1716283,159.901939 67.7726026,159.901939 L67.7726026,159.901939 Z M68.0016849,289.787875 C56.5580289,289.787875 45.8909712,282.583055 37.9548399,269.489937 C30.2725052,256.815107 26.0140469,240.00481 25.9641825,222.156853 C25.8600581,184.80011 44.581115,154.3551 67.6975093,154.291551 L67.7735532,154.291551 C79.2172092,154.291551 89.8852174,161.49637 97.8194475,174.589489 C105.501782,187.264318 109.760241,204.074615 109.810121,221.921624 C109.860048,239.77053 105.696645,256.60454 98.0865517,269.321103 C90.2074534,282.488205 79.5508518,289.756574 68.0786793,289.787875 L68.0016849,289.787875 Z" id="Fill-12" fill="#000703"></path>
                        <path d="M96.5455222,112.757037 C105.281065,108.700295 110.853181,100.884641 110.853181,92.6193961 C110.853181,85.8565785 107.99203,81.6490246 101.214617,78.1926841 C94.2860679,94.2726347 86.0029863,106.445706 74.8578026,117.416078 C84.7976906,116.664865 90.8222683,115.463113 96.5455222,112.757037 L96.5455222,112.757037 Z M65.069052,95.1746599 C70.7913552,88.261979 76.3644224,79.0937608 79.225574,72.0302681 C77.8700915,71.8813533 77.4185809,71.8813533 76.0630984,71.8813533 C71.6953271,71.8813533 68.2315275,72.3309432 64.1650801,73.5326949 C64.1650801,83.3022632 64.3162174,87.6596803 65.069052,95.1746599 L65.069052,95.1746599 Z M29.0736732,105.243955 C29.0736732,110.803124 31.3331275,113.958789 35.5497616,113.958789 C38.4118637,113.958789 40.9716914,113.057712 43.8328431,111.103799 C42.4783112,103.439904 41.724526,94.5733098 41.5743393,83.9026648 C33.4414445,89.613594 29.0736732,96.9768133 29.0736732,105.243955 L29.0736732,105.243955 Z M112.057527,50.2393883 C111.003368,52.3441138 109.95016,54.8993776 108.895051,57.7543679 C115.371139,59.8581448 119.588724,62.111785 124.105732,66.1694756 C132.389764,73.5326949 136.456211,83.0015881 136.456211,94.422498 C136.456211,112.607174 126.365186,127.183749 108.142216,135.300079 C100.009322,138.907231 91.7262402,140.859248 77.7199048,142.211811 C75.3102638,134.098327 72.7494856,128.085774 69.2856861,122.374845 C58.8933369,132.144414 45.7909734,138.004258 34.3444658,138.004258 C16.5739575,138.004258 5.27763658,126.131861 5.27763658,107.346783 C5.27763658,94.5733098 10.5493798,82.2494262 20.3381304,72.4817549 C26.3627082,66.4692022 31.9348248,62.7131352 41.2730154,58.8053079 C41.2730154,53.6957288 41.2730154,52.193302 41.4232021,45.7311594 C34.9471137,45.5812961 34.9471137,45.5812961 23.8028805,45.4304843 C21.5434262,45.2806211 19.1337852,45.2806211 16.4228203,45.2806211 C14.3145032,45.2806211 13.7118553,45.2806211 11.6035383,45.4304843 L11.3022143,21.6856909 C20.0368065,23.3389295 27.7181907,23.9402796 39.314885,23.9402796 L40.2188569,23.9402796 L42.3271739,23.7904164 C42.4783112,21.8365027 42.4783112,21.8365027 42.7796351,17.3282738 C42.9298218,15.8248985 42.9298218,14.1726084 42.9298218,12.5193698 C42.9298218,9.51356765 42.9298218,8.3108674 42.6284979,6.20614196 L68.5328515,7.25897893 C67.3275557,11.7672079 67.0271823,14.1726084 66.1232105,23.0392029 C90.5209444,21.6856909 110.401671,18.9815124 122.601013,15.5242234 L123.654221,39.8694184 C121.24458,40.0202302 120.642883,40.0202302 117.179083,40.4717171 C102.720287,42.575494 79.8282219,44.3785959 64.767728,44.9808945 C64.6175413,46.4833213 64.6175413,46.4833213 64.4664041,49.0376366 C64.4664041,49.9387133 64.4664041,50.3902001 64.3162174,53.5458655 C71.0926792,52.4939771 73.8045947,52.193302 78.9252006,52.193302 C81.7863522,52.193302 82.9906975,52.193302 86.0029863,52.4939771 C87.2082821,49.0376366 87.6597928,46.9329111 87.9611167,43.9280575 L112.057527,50.2393883 Z" id="Fill-14" fill="#0043DA"></path>
                        <path d="M248.323628,158.142468 C238.291537,152.661076 226.778491,149.539557 214.534473,149.539557 C202.290455,149.539557 190.777409,152.661076 180.745318,158.142468 C158.896005,170.08126 144.077901,193.234188 144.077901,219.845354 C144.077901,258.673222 175.622811,290.149254 214.534473,290.149254 C253.446135,290.149254 284.991045,258.673222 284.991045,219.845354 C284.991045,193.234188 270.172941,170.08126 248.323628,158.142468" id="Fill-16" fill="#0043DA"></path>
                        <path d="M239.666506,235.539074 L239.688368,235.539074 L239.695973,235.539074 L258.282052,235.539074 C258.988309,235.539074 259.548183,234.973767 259.548183,234.28231 L259.548183,229.594814 C259.548183,228.896716 258.981656,228.331409 258.282052,228.331409 L245.631199,228.331409 L245.631199,223.459904 L258.282052,223.459904 C258.988309,223.459904 259.548183,222.893649 259.548183,222.195551 L259.548183,217.500468 C259.548183,216.809958 258.981656,216.237063 258.282052,216.237063 L245.631199,216.237063 L245.631199,211.372198 L258.282052,211.372198 C258.988309,211.372198 259.548183,210.806891 259.548183,210.108793 L259.548183,205.41371 C259.548183,204.7232 258.981656,204.150305 258.282052,204.150305 L239.695973,204.150305 L239.688368,204.150305 L239.666506,204.150305 C238.966902,204.150305 238.400375,204.7232 238.400375,205.41371 L238.400375,205.443113 L238.400375,205.450701 L238.400375,234.260494 L238.400375,234.28231 C238.400375,234.973767 238.966902,235.539074 239.666506,235.539074" id="Fill-18" fill="#FFFFFF"></path>
                        <path d="M207.664477,235.539074 L212.369693,235.539074 C213.069297,235.539074 213.636775,234.973767 213.636775,234.28231 L213.636775,217.147625 L226.876017,234.995583 C226.972023,235.127425 227.089891,235.230811 227.207759,235.319022 C227.214412,235.319022 227.214412,235.325661 227.222017,235.325661 C227.251484,235.340838 227.274297,235.362653 227.303764,235.377829 C227.318022,235.384469 227.325627,235.392057 227.339885,235.399645 C227.361748,235.407233 227.384561,235.413872 227.406423,235.429048 C227.428286,235.436636 227.443495,235.443276 227.465357,235.450864 C227.479616,235.458452 227.48722,235.46604 227.502429,235.46604 C227.531896,235.480267 227.561363,235.487855 227.589879,235.495443 C227.597484,235.502083 227.605088,235.502083 227.612692,235.502083 C227.715352,235.524847 227.825615,235.539074 227.943483,235.539074 L232.619232,235.539074 C233.312182,235.539074 233.886314,234.973767 233.886314,234.28231 L233.886314,205.41371 C233.886314,204.7232 233.312182,204.150305 232.620183,204.150305 L227.914016,204.150305 C227.214412,204.150305 226.647885,204.7232 226.647885,205.41371 L226.647885,222.56357 L213.415297,204.72984 C213.378225,204.678621 213.348758,204.63499 213.312637,204.597998 L213.305033,204.59041 C213.28317,204.561006 213.253703,204.531603 213.224236,204.509787 L213.209028,204.487972 C213.179561,204.466156 213.157698,204.443392 213.135835,204.429165 C213.120627,204.421577 213.113022,204.413989 213.098764,204.407349 C213.076901,204.384585 213.061693,204.370358 213.03983,204.355182 L212.995154,204.333366 C212.973292,204.319138 212.951429,204.303962 212.921962,204.297323 C212.914358,204.289735 212.900099,204.282147 212.884891,204.274559 C212.863028,204.267919 212.833561,204.252743 212.811698,204.245155 C212.79649,204.238516 212.782231,204.230928 212.767023,204.230928 C212.74516,204.22334 212.723297,204.209112 212.69383,204.201524 C212.679572,204.201524 212.664363,204.193936 212.650105,204.193936 C212.620638,204.186348 212.597825,204.179709 212.575962,204.179709 C212.5541,204.172121 212.538891,204.172121 212.517028,204.164533 C212.495166,204.164533 212.473303,204.156945 212.45144,204.156945 L212.384902,204.156945 C212.369693,204.156945 212.355435,204.150305 212.340226,204.150305 L207.664477,204.150305 C206.964873,204.150305 206.398346,204.7232 206.398346,205.41371 L206.398346,234.28231 C206.398346,234.973767 206.964873,235.539074 207.664477,235.539074" id="Fill-20" fill="#FFFFFF"></path>
                        <path d="M195.912083,235.539074 L200.617299,235.539074 C201.316903,235.539074 201.876776,234.973767 201.876776,234.28231 L201.876776,205.41371 C201.876776,204.7232 201.316903,204.150305 200.617299,204.150305 L195.912083,204.150305 C195.220083,204.150305 194.652606,204.7232 194.652606,205.41371 L194.652606,234.28231 C194.652606,234.973767 195.220083,235.539074 195.912083,235.539074" id="Fill-22" fill="#FFFFFF"></path>
                        <path d="M170.787559,235.539074 L170.809422,235.539074 L189.409759,235.539074 C190.102709,235.539074 190.669236,234.973767 190.669236,234.28231 L190.669236,229.594814 C190.669236,228.896716 190.102709,228.331409 189.409759,228.331409 L176.752253,228.331409 L176.752253,205.41371 C176.752253,204.7232 176.184775,204.150305 175.485171,204.150305 L170.787559,204.150305 C170.087955,204.150305 169.521428,204.7232 169.521428,205.41371 L169.521428,234.260494 L169.521428,234.28231 C169.521428,234.973767 170.087955,235.539074 170.787559,235.539074" id="Fill-24" fill="#FFFFFF"></path>
                        <path d="M214.534473,95.7474601 C200.39316,95.7474601 188.929542,84.3208592 188.929542,70.2261229 C188.929542,56.1313865 200.39316,44.7047856 214.534473,44.7047856 C228.675786,44.7047856 240.140354,56.1313865 240.140354,70.2261229 C240.140354,84.3208592 228.675786,95.7474601 214.534473,95.7474601 M214.534473,0 C175.622811,0 144.077901,31.4409368 144.077901,70.2261229 C144.077901,109.011309 175.622811,140.452246 214.534473,140.452246 C253.447086,140.452246 284.991045,109.011309 284.991045,70.2261229 C284.991045,31.4409368 253.447086,0 214.534473,0" id="Fill-26" fill="#000000"></path>
                    </g>
                </g>
            </g>
        </g>
    </g>
</svg>