<?xml version="1.0" encoding="UTF-8"?>
<svg width="432px" height="432px" viewBox="0 0 432 432" version="1.1" xmlns="http://www.w3.org/2000/svg" xmlns:xlink="http://www.w3.org/1999/xlink">
    <title>M Graphic@1x</title>
    <defs>
        <path d="M0,59.992495 C0,89.6557405 26.2716567,114.489008 61.7565169,119.188681 L61.7565169,119.188681 C64.1607996,119.70604 67.4346344,120.774543 68.2636974,122.835295 L68.2636974,122.835295 C69.0098541,124.701072 68.7476389,127.63342 68.500848,129.513675 L68.500848,129.513675 C68.500848,129.513675 67.6312959,134.739395 67.4510229,135.847471 L67.4510229,135.847471 C67.1232538,137.713248 65.9654577,143.160004 73.8425202,139.832879 L73.8425202,139.832879 C81.7272949,136.513476 116.367668,114.761201 131.866326,96.9103595 L131.866326,96.9103595 L131.857649,96.9103595 C142.557382,85.1626256 147.68504,73.2343948 147.68504,59.992495 L147.68504,59.992495 C147.68504,26.9113935 114.562046,0 73.8425202,0 L73.8425202,0 C33.131671,0 0,26.9113935 0,59.992495 L0,59.992495 Z" id="path-1"></path>
    </defs>
    <g id="LDS_PC" stroke="none" stroke-width="1" fill="none" fill-rule="evenodd">
        <g id="1_LDS_Main" transform="translate(-1128.000000, -1244.000000)">
            <g id="body_2" transform="translate(359.999720, 1244.000000)">
                <g id="M-Graphic" transform="translate(768.000280, 0.000000)">
                    <rect id="Rectangle" x="0" y="0" width="432" height="432"></rect>
                    <g id="Group-28" transform="translate(69.635821, 73.504478)">
                        <g id="Group-5" transform="translate(0.000482, 11.099297)">
                            <path d="M0.000192805348,70.9593633 L0.000192805348,76.6406682 C0.000192805348,81.8509441 1.22836287,86.7677921 3.39067485,91.1392888 C5.85761927,96.1275633 9.54405752,100.403503 14.0759472,103.554957 C18.3311613,106.515298 23.3171075,108.494971 28.7118012,109.154218 C31.6308741,109.510386 34.3542497,110.812472 36.5801874,112.735197 L54.7935446,128.466408 C56.9924896,130.365002 60.4176766,129.049403 60.7830427,126.165315 L62.1953419,115.03822 C62.6040893,111.813409 65.3438532,109.396489 68.5897313,109.396489 L108.816639,109.396489 C126.885392,109.396489 141.53185,94.7318503 141.53185,76.6406682 L141.53185,32.7558212 C141.53185,14.6646391 126.884428,0 108.816639,0 L32.7154042,0 C30.5723728,0 28.4775427,0.208488254 26.4501944,0.6022994 C26.4492304,0.598438506 26.4492304,0.595542836 26.4473024,0.591681942 C25.7657355,0.723917548 25.0918808,0.877388068 24.4257383,1.05112828 C10.3721565,4.72669898 0.000192805348,17.5217003 0.000192805348,32.7442385 L0.000192805348,43.3877569 L0.000192805348,70.9477806" id="Fill-1" fill="#000000"></path>
                            <path d="M147.684076,195.576171 C147.684076,162.495069 114.562046,135.582711 73.8425202,135.582711 C33.1307069,135.582711 0,162.495069 0,195.576171 C0,225.239416 26.2716567,250.073649 61.7565169,254.772357 C64.1607996,255.289716 67.4346344,256.358219 68.2627334,258.419936 C69.0098541,260.284747 68.7466748,263.217096 68.500848,265.098316 C68.500848,265.098316 67.6312959,270.323071 67.4510229,271.432112 C67.1222898,273.296924 65.9654577,278.74368 73.8425202,275.416555 C81.7263308,272.097151 116.366704,250.344877 131.865362,232.494035 L131.857649,232.494035 C142.556418,220.746301 147.684076,208.818071 147.684076,195.576171" id="Fill-3" fill="#1DCC64"></path>
                        </g>
                        <g id="Group-8" transform="translate(0.000000, 146.683262)">
                            <mask id="mask-2" fill="white">
                                <use xlink:href="#path-1"></use>
                            </mask>
                            <g id="Clip-7"></g>
                            <polygon id="Fill-6" fill="#1DCC64" mask="url(#mask-2)" points="-0.239946255 -0.241788461 147.925179 -0.241788461 147.925179 143.400827 -0.239946255 143.399862"></polygon>
                        </g>
                        <g id="Group-27" transform="translate(28.111502, 0.000000)">
                            <path d="M71.2634594,224.560382 L71.2856321,224.560382 L71.2933443,224.560382 L90.175736,224.560382 C90.8929719,224.560382 91.4617477,223.984143 91.4617477,223.27953 L91.4617477,218.500709 C91.4617477,217.789339 90.8862237,217.213101 90.175736,217.213101 L77.3233315,217.213101 L77.3233315,212.247027 L90.175736,212.247027 C90.8929719,212.247027 91.4617477,211.669823 91.4617477,210.958454 L91.4617477,206.171911 C91.4617477,205.468263 90.8862237,204.883337 90.175736,204.883337 L77.3233315,204.883337 L77.3233315,199.924985 L90.175736,199.924985 C90.8929719,199.924985 91.4617477,199.347781 91.4617477,198.637377 L91.4617477,193.850834 C91.4617477,193.146221 90.8862237,192.562261 90.175736,192.562261 L71.2933443,192.562261 L71.2856321,192.562261 L71.2634594,192.562261 C70.5529717,192.562261 69.9764837,193.146221 69.9764837,193.850834 L69.9764837,193.880756 L69.9764837,193.888478 L69.9764837,223.25733 L69.9764837,223.27953 C69.9764837,223.984143 70.5529717,224.560382 71.2634594,224.560382" id="Fill-9" fill="#FFFFFF"></path>
                            <path d="M38.7514648,224.560382 L43.5320734,224.560382 C44.2425612,224.560382 44.8190491,223.984143 44.8190491,223.27953 L44.8190491,205.812848 L58.2691502,224.006343 C58.3665169,224.141475 58.4860562,224.245719 58.6055955,224.335485 C58.6133078,224.335485 58.6133078,224.343206 58.62102,224.343206 C58.6509048,224.35865 58.6730774,224.38085 58.7029622,224.395328 C58.7183867,224.40305 58.7260989,224.410772 58.7405593,224.418494 C58.7627319,224.42525 58.7858685,224.432972 58.8080412,224.448416 C58.8302138,224.455172 58.8456382,224.462894 58.8678108,224.470616 C58.8822712,224.478338 58.8899834,224.485094 58.9054079,224.485094 C58.9352927,224.500538 58.9651775,224.50826 58.9950623,224.515016 C59.0027746,224.522738 59.0095227,224.522738 59.017235,224.522738 C59.1223139,224.544938 59.234141,224.560382 59.3536803,224.560382 L64.1044041,224.560382 C64.8071796,224.560382 65.3913798,223.984143 65.3913798,223.27953 L65.3913798,193.850834 C65.3913798,193.146221 64.8071796,192.562261 64.1044041,192.562261 L59.3237955,192.562261 C58.6133078,192.562261 58.0368198,193.146221 58.0368198,193.850834 L58.0368198,211.33296 L44.5944309,193.153943 C44.5568339,193.101821 44.526949,193.056455 44.489352,193.018811 L44.4816398,193.012055 C44.4594672,192.982133 44.4295823,192.952211 44.3996975,192.929046 L44.3842731,192.906846 C44.3543883,192.884645 44.3322156,192.862445 44.310043,192.847002 C44.2946186,192.83928 44.2869064,192.832523 44.272446,192.824802 C44.2502734,192.802601 44.2348489,192.787158 44.2126763,192.772679 C44.1972519,192.764958 44.1827915,192.757236 44.1673671,192.749514 C44.1451945,192.735036 44.1230218,192.719592 44.093137,192.712836 C44.0854248,192.705114 44.0700004,192.697392 44.05554,192.68967 C44.0333674,192.681948 44.0034825,192.66747 43.9803459,192.659748 C43.9658855,192.652027 43.9504611,192.64527 43.9360007,192.64527 C43.912864,192.637548 43.8906914,192.622105 43.8608066,192.615348 C43.8463462,192.615348 43.8309217,192.607626 43.8164613,192.607626 C43.7865765,192.599904 43.7634399,192.592183 43.7412673,192.592183 C43.7190946,192.585426 43.7036702,192.585426 43.6814976,192.577704 C43.659325,192.577704 43.6371524,192.569983 43.6140157,192.569983 L43.5465339,192.569983 C43.5320734,192.569983 43.516649,192.562261 43.5021886,192.562261 L38.7514648,192.562261 C38.0409771,192.562261 37.4644892,193.146221 37.4644892,193.850834 L37.4644892,223.27953 C37.4644892,223.984143 38.0409771,224.560382 38.7514648,224.560382" id="Fill-11" fill="#FFFFFF"></path>
                            <path d="M26.8118009,224.560382 L31.5924095,224.560382 C32.3028972,224.560382 32.871673,223.984143 32.871673,223.27953 L32.871673,193.850834 C32.871673,193.146221 32.3028972,192.562261 31.5924095,192.562261 L26.8118009,192.562261 C26.1090254,192.562261 25.5325374,193.146221 25.5325374,193.850834 L25.5325374,223.27953 C25.5325374,223.984143 26.1090254,224.560382 26.8118009,224.560382" id="Fill-13" fill="#FFFFFF"></path>
                            <path d="M1.2869757,224.560382 L1.30914831,224.560382 L20.2060005,224.560382 C20.90974,224.560382 21.4852639,223.984143 21.4852639,223.27953 L21.4852639,218.500709 C21.4852639,217.789339 20.90974,217.213101 20.2060005,217.213101 L7.34684778,217.213101 L7.34684778,193.850834 C7.34684778,193.146221 6.77035979,192.562261 6.05987208,192.562261 L1.2869757,192.562261 C0.57648799,192.562261 0,193.146221 0,193.850834 L0,223.25733 L0,223.27953 C0,223.984143 0.57648799,224.560382 1.2869757,224.560382" id="Fill-15" fill="#FFFFFF"></path>
                            <path d="M159.240058,137.16114 C148.944252,126.177863 128.265879,100.319529 128.265879,69.7576601 C128.265879,26.7289663 154.716844,0 197.296941,0 C238.19192,0 264.616856,23.249336 264.616856,59.2280381 C264.616856,91.8863717 238.079128,118.453181 205.461284,118.453181 L185.92721,118.53619 C171.379082,118.53619 163.263905,129.215421 159.240058,137.16114" id="Fill-17" fill="#1DCC64"></path>
                            <path d="M201.850425,63.1647017 C201.850425,66.155929 199.42879,68.5805702 196.441271,68.5805702 C193.453752,68.5805702 191.032117,66.155929 191.032117,63.1647017 C191.032117,60.1734744 193.453752,57.7488332 196.441271,57.7488332 C199.42879,57.7488332 201.850425,60.1734744 201.850425,63.1647017" id="Fill-19" fill="#FFFFFF"></path>
                            <path d="M180.586213,63.1647017 C180.586213,66.155929 178.164577,68.5805702 175.177058,68.5805702 C172.18954,68.5805702 169.767904,66.155929 169.767904,63.1647017 C169.767904,60.1734744 172.18954,57.7488332 175.177058,57.7488332 C178.164577,57.7488332 180.586213,60.1734744 180.586213,63.1647017" id="Fill-21" fill="#FFFFFF"></path>
                            <path d="M223.114734,63.1647017 C223.114734,66.155929 220.693099,68.5805702 217.70558,68.5805702 C214.718061,68.5805702 212.296426,66.155929 212.296426,63.1647017 C212.296426,60.1734744 214.718061,57.7488332 217.70558,57.7488332 C220.693099,57.7488332 223.114734,60.1734744 223.114734,63.1647017" id="Fill-23" fill="#FFFFFF"></path>
                            <path d="M259.16972,208.222624 L142.904239,150.037027 C140.447899,148.803472 137.548106,149.066978 135.340485,150.721371 C133.138648,152.375764 132.072434,155.083215 132.560232,157.791632 L141.897795,209.809452 L145.706665,209.809452 L149.485649,209.809452 L201.92774,209.809452 L201.92774,219.587165 L149.515534,219.587165 L145.706665,219.587165 L141.883335,219.587165 L132.560232,271.605949 C132.072434,274.321123 133.138648,277.028574 135.340485,278.683932 C136.624569,279.64626 138.141947,280.134663 139.674749,280.134663 C140.770848,280.134663 141.883335,279.879844 142.911951,279.368276 L259.16972,221.181714 C261.633772,219.948158 263.166575,217.466569 263.166575,214.698308 C263.166575,211.937769 261.633772,209.45618 259.16972,208.222624" id="Fill-25" fill="#000000"></path>
                        </g>
                    </g>
                </g>
            </g>
        </g>
    </g>
</svg>