<svg xmlns="http://www.w3.org/2000/svg" width="264.142" height="329.665" viewBox="0 0 264.142 329.665">
  <g id="Group_438" data-name="Group 438" transform="translate(4625.096 -1101.455) rotate(17)">
    <path id="Path_14446" data-name="Path 14446" d="M270,14.975S209.561,29.95,135,29.95,0,14.975,0,14.975,60.444,0,135,0,270,14.975,270,14.975Z" transform="translate(-3798.644 2585.278) rotate(-130)" fill="#1c5c1e"/>
    <path id="Path_14447" data-name="Path 14447" d="M260.8,0S206.3,30.109,134.279,49.407,0,69.883,0,69.883,54.507,39.774,126.528,20.476,260.8,0,260.8,0Z" transform="translate(-3840.761 2620.741) rotate(-130)" fill="#1c5c1e"/>
    <path id="Path_14448" data-name="Path 14448" d="M233.827,0S188.972,43.189,124.4,80.47,0,135,0,135s44.856-43.191,109.426-80.47S233.827,0,233.827,0Z" transform="translate(-3890.75 2662.586) rotate(-130)" fill="#1c5c1e"/>
    <path id="Path_14449" data-name="Path 14449" d="M190.921,0s-32.149,53.327-84.872,106.049S0,190.921,0,190.921s32.15-53.33,84.872-106.049S190.921,0,190.921,0Z" transform="translate(-3933.243 2699.024) rotate(-130)" fill="#1c5c1e"/>
  </g>
</svg>
