<?xml version="1.0" encoding="UTF-8"?>
<svg width="380px" height="250px" viewBox="0 0 380 250" version="1.1" xmlns="http://www.w3.org/2000/svg" xmlns:xlink="http://www.w3.org/1999/xlink">
    <title>ldsm/component/img_switch@2x</title>
    <g id="LDSM_PC" stroke="none" stroke-width="1" fill="none" fill-rule="evenodd">
        <g id="LDSM_4_overview_component_pc-Copy" transform="translate(-899.000000, -1400.000000)">
            <g id="ldsm/component/img_switch" transform="translate(899.000000, 1400.000000)">
                <polygon id="Fill-1" points="0 250 380 250 380 0 0 0"></polygon>
                <g id="Group-22" transform="translate(119.000000, 61.000000)">
                    <path d="M140.92451,127.739582 L140.92451,15.0228128 C140.92451,6.94050513 134.372433,0.388428205 126.290126,0.388428205 L14.9915359,0.388428205 C6.90922821,0.388428205 0.357638462,6.94050513 0.357638462,15.0228128 L0.357638462,127.739582" id="Fill-2" fill="#FFFFFF"></path>
                    <path d="M140.92451,127.739582 L140.92451,15.0228128 C140.92451,6.94050513 134.372433,0.388428205 126.290126,0.388428205 L15.2750744,0.388428205 C7.19276667,0.388428205 0.641176923,6.94050513 0.641176923,15.0228128 L0.641176923,127.739582" id="Stroke-4" stroke="#000000" stroke-width="4" stroke-linejoin="round"></path>
                    <path d="M107.500685,1.75467436 C107.500685,5.26187949 104.657505,8.10505897 101.1503,8.10505897 L40.4150949,8.10505897 C36.9078897,8.10505897 34.0647103,5.26187949 34.0647103,1.75467436 L34.0647103,0.388623077 L107.500685,0.388623077 L107.500685,1.75467436 Z" id="Fill-6" fill="#000000"></path>
                    <path d="M107.500685,1.75467436 C107.500685,5.26187949 104.657505,8.10505897 101.1503,8.10505897 L40.4150949,8.10505897 C36.9078897,8.10505897 34.0647103,5.26187949 34.0647103,1.75467436 L34.0647103,0.388623077 L107.500685,0.388623077 L107.500685,1.75467436 Z" id="Stroke-8" stroke="#000000" stroke-width="3.8974359" stroke-linejoin="round"></path>
                    <path d="M117.004095,85.6810359 L97.1661462,85.6810359 C91.1475308,85.6810359 86.2684282,80.8019333 86.2684282,74.7833179 C86.2684282,68.7642154 91.1475308,63.8851128 97.1661462,63.8851128 L117.004095,63.8851128 C123.02271,63.8851128 127.901813,68.7642154 127.901813,74.7833179 C127.901813,80.8019333 123.02271,85.6810359 117.004095,85.6810359" id="Fill-10" fill="#F0F0F2"></path>
                    <path d="M104.687759,74.7831718 C104.687759,70.6289923 101.320374,67.2616077 97.1661949,67.2616077 C93.0125026,67.2616077 89.6446308,70.6289923 89.6446308,74.7831718 C89.6446308,78.9373513 93.0125026,82.3047359 97.1661949,82.3047359 C101.320374,82.3047359 104.687759,78.9373513 104.687759,74.7831718" id="Fill-12" fill="#FFFFFF"></path>
                    <path d="M117.004095,114.313841 L97.1661462,114.313841 C91.1475308,114.313841 86.2684282,109.434738 86.2684282,103.416123 C86.2684282,97.3970205 91.1475308,92.5179179 97.1661462,92.5179179 L117.004095,92.5179179 C123.02271,92.5179179 127.901813,97.3970205 127.901813,103.416123 C127.901813,109.434738 123.02271,114.313841 117.004095,114.313841" id="Fill-14" fill="#F0F0F2"></path>
                    <path d="M104.687759,103.415977 C104.687759,99.2617974 101.320374,95.8944128 97.1661949,95.8944128 C93.0125026,95.8944128 89.6446308,99.2617974 89.6446308,103.415977 C89.6446308,107.570156 93.0125026,110.937541 97.1661949,110.937541 C101.320374,110.937541 104.687759,107.570156 104.687759,103.415977" id="Fill-16" fill="#FFFFFF"></path>
                    <path d="M97.166341,35.2525026 L117.00429,35.2525026 C123.022905,35.2525026 127.902008,40.1316051 127.902008,46.1502205 C127.902008,52.1693231 123.022905,57.0484256 117.00429,57.0484256 L97.166341,57.0484256 C91.1477256,57.0484256 86.2686231,52.1693231 86.2686231,46.1502205 C86.2686231,40.1316051 91.1477256,35.2525026 97.166341,35.2525026" id="Fill-18" fill="#2CDB61"></path>
                    <path d="M109.482677,46.1504154 C109.482677,50.3045949 112.850062,53.6719795 117.004241,53.6719795 C121.157933,53.6719795 124.525805,50.3045949 124.525805,46.1504154 C124.525805,41.9962359 121.157933,38.6288513 117.004241,38.6288513 C112.850062,38.6288513 109.482677,41.9962359 109.482677,46.1504154" id="Fill-20" fill="#FFFFFF"></path>
                </g>
            </g>
        </g>
    </g>
</svg>