<?xml version="1.0" encoding="UTF-8"?>
<svg width="380px" height="250px" viewBox="0 0 380 250" version="1.1" xmlns="http://www.w3.org/2000/svg" xmlns:xlink="http://www.w3.org/1999/xlink">
    <title>ldsm/component/img_listheader@2x</title>
    <g id="LDSM_PC" stroke="none" stroke-width="1" fill="none" fill-rule="evenodd">
        <g id="LDSM_4_overview_component_pc-Copy" transform="translate(-1399.000000, -2957.000000)">
            <g id="ldsm/component/img_listheader" transform="translate(1399.000000, 2957.000000)">
                <polygon id="Fill-1" points="0 250 380 250 380 0 0 0"></polygon>
                <g id="Group-24" transform="translate(119.000000, 61.000000)">
                    <path d="M141.283485,127.713941 L141.283485,14.9971718 C141.283485,6.9148641 134.731408,0.362787179 126.6491,0.362787179 L15.3505103,0.362787179 C7.26820256,0.362787179 0.716612821,6.9148641 0.716612821,14.9971718 L0.716612821,127.713941" id="Fill-2" fill="#FFFFFF"></path>
                    <path d="M141.283485,127.713941 L141.283485,14.9971718 C141.283485,6.9148641 134.731408,0.362787179 126.6491,0.362787179 L15.6340487,0.362787179 C7.55174103,0.362787179 1.00015128,6.9148641 1.00015128,14.9971718 L1.00015128,127.713941" id="Stroke-4" stroke="#000000" stroke-width="4" stroke-linejoin="round"></path>
                    <path d="M107.859659,1.72903333 C107.859659,5.23623846 105.016479,8.07941795 101.509274,8.07941795 L40.7740692,8.07941795 C37.2668641,8.07941795 34.4236846,5.23623846 34.4236846,1.72903333 L34.4236846,0.362982051 L107.859659,0.362982051 L107.859659,1.72903333 Z" id="Fill-6" fill="#000000"></path>
                    <path d="M107.859659,1.72903333 C107.859659,5.23623846 105.016479,8.07941795 101.509274,8.07941795 L40.7740692,8.07941795 C37.2668641,8.07941795 34.4236846,5.23623846 34.4236846,1.72903333 L34.4236846,0.362982051 L107.859659,0.362982051 L107.859659,1.72903333 Z" id="Stroke-8" stroke="#000000" stroke-width="3.8974359" stroke-linejoin="round"></path>
                    <polyline id="Stroke-10" stroke="#B7B7B7" stroke-width="1.46153846" stroke-linecap="square" points="127.1678 64.2173051 130.933697 67.9836897 127.1678 71.7491"></polyline>
                    <polygon id="Fill-12" fill="#111111" points="20.0341077 72.929 13.7212359 72.929 13.7212359 63.2794359 15.7405949 63.2794359 15.7405949 71.2306923 20.0341077 71.2306923"></polygon>
                    <path d="M21.4665128,72.929 L23.4127949,72.929 L23.4127949,65.5662564 L21.4665128,65.5662564 L21.4665128,72.929 Z M21.3398462,63.353 C21.3398462,62.7445128 21.8411538,62.2626923 22.4428205,62.2626923 C23.0444872,62.2626923 23.5399487,62.7445128 23.5399487,63.353 C23.5399487,63.9551538 23.0444872,64.4364872 22.4428205,64.4364872 C21.8411538,64.4364872 21.3398462,63.9551538 21.3398462,63.353 L21.3398462,63.353 Z" id="Fill-14" fill="#111111"></path>
                    <path d="M28.0615103,65.4061205 C29.933741,65.4061205 31.0372026,66.1880436 31.1443821,67.578941 L29.3452282,67.578941 C29.2453564,67.0912744 28.7971513,66.7901974 28.0751513,66.7901974 C27.3799462,66.7901974 26.8645103,67.1180692 26.8645103,67.5998897 C26.8645103,67.9740436 27.178741,68.2083769 27.8607923,68.3618385 L29.2453564,68.6624282 C30.6766897,68.976659 31.3178179,69.5783256 31.3178179,70.6754538 C31.3178179,72.1335821 30.0009718,73.0830949 28.0683308,73.0830949 C26.1220487,73.0830949 24.9450231,72.2870436 24.8120231,70.8961462 L26.7110487,70.8961462 C26.8576897,71.4047615 27.3326897,71.7053513 28.1087667,71.7053513 C28.8643821,71.7053513 29.3851769,71.3711462 29.3851769,70.8825051 C29.3851769,70.5083513 29.1045615,70.2808385 28.4566128,70.1341974 L27.1188179,69.8326333 C25.6874846,69.5184026 24.9922795,68.843659 24.9922795,67.7129154 C24.9922795,66.335659 26.2224077,65.4061205 28.0615103,65.4061205" id="Fill-16" fill="#111111"></path>
                    <path d="M35.1572308,63.8078795 L35.1572308,65.633341 L36.6889231,65.633341 L36.6889231,67.1114436 L35.1572308,67.1114436 L35.1572308,70.4949051 C35.1572308,71.1569821 35.4514872,71.4643923 36.1135641,71.4643923 C36.3678718,71.4643923 36.5018462,71.4512385 36.6889231,71.4312641 L36.6889231,72.8689308 C36.4477692,72.9157 36.0867692,72.9556487 35.711641,72.9556487 C33.9202821,72.9556487 33.2109487,72.3739564 33.2109487,70.9431103 L33.2109487,67.1114436 L32.0612051,67.1114436 L32.0612051,65.633341 L33.2109487,65.633341 L33.2109487,63.8078795 L35.1572308,63.8078795 Z" id="Fill-17" fill="#111111"></path>
                    <polygon id="Fill-18" fill="#111111" points="47.9591385 72.929 47.9591385 68.863 43.6125231 68.863 43.6125231 72.929 41.5931641 72.929 41.5931641 63.2794359 43.6125231 63.2794359 43.6125231 67.1983077 47.9591385 67.1983077 47.9591385 63.2794359 49.9784974 63.2794359 49.9784974 72.929"></polygon>
                    <path d="M53.4774692,68.4955205 L56.6202641,68.4955205 C56.5803154,67.4860846 55.9918026,66.8576231 55.0822385,66.8576231 C54.1794949,66.8576231 53.5442128,67.5055718 53.4774692,68.4955205 L53.4774692,68.4955205 Z M58.4725205,70.8495718 C58.1845974,72.2204949 56.9081872,73.0828026 55.1027,73.0828026 C52.8558282,73.0828026 51.5311872,71.6651103 51.5311872,69.2847513 C51.5311872,66.8907513 52.8826231,65.4058282 55.0759051,65.4058282 C57.2487256,65.4058282 58.5334179,66.7972128 58.5334179,69.1239821 L58.5334179,69.7061615 L53.4706487,69.7061615 L53.4706487,69.8065205 C53.4974436,70.9294692 54.1395462,71.6314949 55.1558026,71.6314949 C55.925059,71.6314949 56.4531615,71.3508795 56.6607,70.8495718 L58.4725205,70.8495718 Z" id="Fill-19" fill="#111111"></path>
                    <path d="M64.1514744,70.2475641 L64.1514744,69.699 L62.6602179,69.799359 C61.8242179,69.8524615 61.4164487,70.1676667 61.4164487,70.7084359 C61.4164487,71.2779487 61.8909615,71.6184872 62.5666795,71.6184872 C63.4699103,71.6184872 64.1514744,71.023641 64.1514744,70.2475641 M59.5106026,70.8297436 C59.5106026,69.4987692 60.5336795,68.7226923 62.3659615,68.6155128 L64.1514744,68.5093077 L64.1514744,67.9003333 C64.1514744,67.2650513 63.7100897,66.8977179 62.9077051,66.8977179 C62.2051923,66.8977179 61.7375,67.1447179 61.5767308,67.6060769 L59.7848846,67.6060769 C59.9120385,66.2556154 61.162141,65.4064615 63.0148846,65.4064615 C64.9670128,65.4064615 66.0704744,66.3291795 66.0704744,67.9003333 L66.0704744,72.929 L64.1850897,72.929 L64.1850897,71.9526923 L64.0647564,71.9526923 C63.6837821,72.6352308 62.8809103,73.043 61.9245769,73.043 C60.5068846,73.043 59.5106026,72.1733846 59.5106026,70.8297436" id="Fill-20" fill="#111111"></path>
                    <path d="M69.4022462,69.2444615 C69.4022462,70.635359 70.0238872,71.471359 71.0669385,71.471359 C72.1109641,71.471359 72.7394256,70.6285385 72.7394256,69.2512821 C72.7394256,67.8735385 72.1041436,67.0243846 71.0669385,67.0243846 C70.0307077,67.0243846 69.4022462,67.8603846 69.4022462,69.2444615 M67.4028615,69.237641 C67.4028615,66.8972308 68.5530923,65.4464103 70.4048615,65.4464103 C71.4016308,65.4464103 72.2239897,65.9282308 72.6054513,66.7437692 L72.7184769,66.7437692 L72.7184769,62.7513333 L74.664759,62.7513333 L74.664759,72.929 L72.7788872,72.929 L72.7788872,71.7719487 L72.6585538,71.7719487 C72.2644256,72.568 71.4284256,73.0425128 70.4048615,73.0425128 C68.5462718,73.0425128 67.4028615,71.5848718 67.4028615,69.237641" id="Fill-21" fill="#111111"></path>
                    <path d="M78.0500718,68.4955205 L81.1928667,68.4955205 C81.1529179,67.4860846 80.5644051,66.8576231 79.654841,66.8576231 C78.7520974,66.8576231 78.1168154,67.5055718 78.0500718,68.4955205 L78.0500718,68.4955205 Z M83.0451231,70.8495718 C82.7572,72.2204949 81.4807897,73.0828026 79.6753026,73.0828026 C77.4284308,73.0828026 76.1037897,71.6651103 76.1037897,69.2847513 C76.1037897,66.8907513 77.4552256,65.4058282 79.6485077,65.4058282 C81.8213282,65.4058282 83.1060205,66.7972128 83.1060205,69.1239821 L83.1060205,69.7061615 L78.0432513,69.7061615 L78.0432513,69.8065205 C78.0700462,70.9294692 78.7121487,71.6314949 79.7284051,71.6314949 C80.4976615,71.6314949 81.0257641,71.3508795 81.2333026,70.8495718 L83.0451231,70.8495718 Z" id="Fill-22" fill="#111111"></path>
                    <path d="M84.4778692,65.5665974 L86.363741,65.5665974 L86.363741,66.7368026 L86.4840744,66.7368026 C86.6779718,66.0011615 87.4404077,65.4462641 88.3762795,65.4462641 C88.6442282,65.4462641 88.9711256,65.4798795 89.1387154,65.5329821 L89.1387154,67.2449308 C88.9852538,67.1918282 88.5302282,67.1377513 88.2159974,67.1377513 C87.1529718,67.1377513 86.4241513,67.7730333 86.4241513,68.8102385 L86.4241513,72.929341 L84.4778692,72.929341 L84.4778692,65.5665974 Z" id="Fill-23" fill="#111111"></path>
                </g>
            </g>
        </g>
    </g>
</svg>