<?xml version="1.0" encoding="UTF-8"?>
<svg width="380px" height="250px" viewBox="0 0 380 250" version="1.1" xmlns="http://www.w3.org/2000/svg" xmlns:xlink="http://www.w3.org/1999/xlink">
    <title>ldsm/component/img_textbtn@2x</title>
    <g id="LDSM_PC" stroke="none" stroke-width="1" fill="none" fill-rule="evenodd">
        <g id="LDSM_4_overview_component_pc-Copy" transform="translate(-899.000000, -632.000000)">
            <g id="ldsm/component/img_textbtn" transform="translate(899.000000, 632.000000)">
                <polygon id="Fill-1" points="0 250 380 250 380 0 0 0"></polygon>
                <polygon id="Fill-2" fill="#2CDB61" points="236.575967 157.67491 242.597018 163.695962 243.716069 162.578372 237.694044 156.556833"></polygon>
                <polygon id="Fill-3" fill="#2CDB61" points="236.575869 157.675008 242.597408 163.695572 243.343279 162.951162 243.715972 162.578956 237.693946 156.556931"></polygon>
                <polygon id="Fill-4" fill="#2CDB61" points="236.575967 167.480274 237.694044 168.598351 243.716069 162.576813 242.597018 161.459223"></polygon>
                <polygon id="Fill-5" fill="#2CDB61" points="236.575869 167.480323 237.693946 168.597913 243.715972 162.576374 242.596921 161.459272"></polygon>
                <g id="Group-28" transform="translate(119.000000, 61.000000)">
                    <path d="M25.3053205,105.881251 C26.9549103,105.881251 27.8323205,105.194815 27.8323205,103.909636 C27.8323205,102.633226 26.9290897,101.965303 25.2186026,101.965303 L22.7003718,101.965303 L22.7003718,105.881251 L25.3053205,105.881251 Z M22.7003718,100.376123 L24.8629615,100.376123 C26.4511667,100.376123 27.2939872,99.759841 27.2939872,98.6139949 C27.2939872,97.4934821 26.5037821,96.8426103 25.1494231,96.8426103 L22.7003718,96.8426103 L22.7003718,100.376123 Z M20.4608077,107.626815 L20.4608077,95.0970462 L25.6965256,95.0970462 C28.0754231,95.0970462 29.5077308,96.2950205 29.5077308,98.2237641 C29.5077308,99.5420718 28.5353205,100.705944 27.2759615,100.905687 L27.2759615,101.062559 C28.960141,101.218456 30.1240128,102.433482 30.1240128,104.066508 C30.1240128,106.272456 28.4919615,107.626815 25.8178333,107.626815 L20.4608077,107.626815 Z" id="Fill-6" fill="#2CDB61"></path>
                    <path d="M40.2571513,107.626377 L38.1817667,107.626377 L38.1817667,106.116121 L38.0346385,106.116121 C37.5742538,107.200582 36.6456897,107.817351 35.1953564,107.817351 C33.1199718,107.817351 31.9049462,106.52389 31.9049462,104.300403 L31.9049462,98.1361205 L34.0582795,98.1361205 L34.0582795,103.779608 C34.0582795,105.255762 34.6570231,105.968018 35.9422026,105.968018 C37.3399205,105.968018 38.1038179,105.099377 38.1038179,103.667069 L38.1038179,98.1361205 L40.2571513,98.1361205 L40.2571513,107.626377 Z" id="Fill-8" fill="#2CDB61"></path>
                    <path d="M45.388759,95.8094 L45.388759,98.1970667 L47.4207846,98.1970667 L47.4207846,99.8724769 L45.388759,99.8724769 L45.388759,104.596169 C45.388759,105.542759 45.787759,105.968554 46.6905026,105.968554 C46.9949897,105.968554 47.1601436,105.950528 47.4207846,105.925195 L47.4207846,107.574785 C47.1075282,107.634708 46.7085282,107.669785 46.2915026,107.669785 C44.1123487,107.669785 43.2441949,106.940477 43.2441949,105.108195 L43.2441949,99.8724769 L41.7427077,99.8724769 L41.7427077,98.1970667 L43.2441949,98.1970667 L43.2441949,95.8094 L45.388759,95.8094 Z" id="Fill-10" fill="#2CDB61"></path>
                    <path d="M52.1194846,95.8094 L52.1194846,98.1970667 L54.1515103,98.1970667 L54.1515103,99.8724769 L52.1194846,99.8724769 L52.1194846,104.596169 C52.1194846,105.542759 52.5184846,105.968554 53.4212282,105.968554 C53.7257154,105.968554 53.8908692,105.950528 54.1515103,105.925195 L54.1515103,107.574785 C53.8382538,107.634708 53.4392538,107.669785 53.0222282,107.669785 C50.8430744,107.669785 49.9749205,106.940477 49.9749205,105.108195 L49.9749205,99.8724769 L48.4734333,99.8724769 L48.4734333,98.1970667 L49.9749205,98.1970667 L49.9749205,95.8094 L52.1194846,95.8094 Z" id="Fill-12" fill="#2CDB61"></path>
                    <path d="M62.3287205,102.885438 C62.3287205,100.880208 61.4693359,99.7163359 59.9756436,99.7163359 C58.4741564,99.7163359 57.6147718,100.880208 57.6147718,102.885438 C57.6147718,104.890669 58.4741564,106.054541 59.9756436,106.054541 C61.4781051,106.054541 62.3287205,104.890669 62.3287205,102.885438 M55.4088231,102.876669 C55.4088231,99.8201051 57.1543872,97.9542077 59.9756436,97.9542077 C62.8056692,97.9542077 64.5424641,99.8123103 64.5424641,102.876669 C64.5424641,105.959541 62.8144385,107.817644 59.9756436,107.817644 C57.1275923,107.817644 55.4088231,105.959541 55.4088231,102.876669" id="Fill-14" fill="#2CDB61"></path>
                    <path d="M66.3751359,98.1362667 L68.4505205,98.1362667 L68.4505205,99.6557795 L68.5976487,99.6557795 C69.0492641,98.5966513 70.0046231,97.9535744 71.4189051,97.9535744 C73.5381359,97.9535744 74.6927513,99.2299846 74.6927513,101.488062 L74.6927513,107.626523 L72.5394179,107.626523 L72.5394179,101.990831 C72.5394179,100.515164 71.9319051,99.7770872 70.6209051,99.7770872 C69.3357256,99.7770872 68.5284692,100.671062 68.5284692,102.095574 L68.5284692,107.626523 L66.3751359,107.626523 L66.3751359,98.1362667 Z" id="Fill-16" fill="#2CDB61"></path>
                    <path d="M84.1403795,95.8094 L84.1403795,98.1970667 L86.1724051,98.1970667 L86.1724051,99.8724769 L84.1403795,99.8724769 L84.1403795,104.596169 C84.1403795,105.542759 84.5393795,105.968554 85.4421231,105.968554 C85.7466103,105.968554 85.9117641,105.950528 86.1724051,105.925195 L86.1724051,107.574785 C85.8591487,107.634708 85.4601487,107.669785 85.0431231,107.669785 C82.8639692,107.669785 81.9958154,106.940477 81.9958154,105.108195 L81.9958154,99.8724769 L80.4943282,99.8724769 L80.4943282,98.1970667 L81.9958154,98.1970667 L81.9958154,95.8094 L84.1403795,95.8094 Z" id="Fill-18" fill="#2CDB61"></path>
                    <path d="M89.6004923,101.982451 L94.0713385,101.982451 C94.0279795,100.541374 93.1773641,99.6293744 91.8843897,99.6293744 C90.5992103,99.6293744 89.6964667,100.558913 89.6004923,101.982451 L89.6004923,101.982451 Z M96.1291846,105.030246 C95.7389538,106.740733 94.1492872,107.817887 91.9102103,107.817887 C89.1142872,107.817887 87.4301077,105.959297 87.4301077,102.919785 C87.4301077,99.8724769 89.1401077,97.9539641 91.8921846,97.9539641 C94.6009026,97.9539641 96.225159,99.7511692 96.225159,102.729297 L96.225159,103.414759 L89.5917231,103.414759 L89.5917231,103.527297 C89.6438513,105.133528 90.5558513,106.141503 91.9701333,106.141503 C93.0380308,106.141503 93.7770821,105.742015 94.0893641,105.030246 L96.1291846,105.030246 Z" id="Fill-20" fill="#2CDB61"></path>
                    <polygon id="Fill-22" fill="#2CDB61" points="101.21831 104.344054 99.282259 107.643721 96.9559769 107.643721 100.029105 102.937567 96.9291821 98.1534641 99.4293872 98.1534641 101.314285 101.443874 101.461413 101.443874 103.337054 98.1534641 105.707182 98.1534641 102.641849 102.841592 105.741772 107.643721 103.310746 107.643721 101.365438 104.344054"></polygon>
                    <path d="M110.127167,95.8094 L110.127167,98.1970667 L112.159192,98.1970667 L112.159192,99.8724769 L110.127167,99.8724769 L110.127167,104.596169 C110.127167,105.542759 110.526167,105.968554 111.42891,105.968554 C111.733397,105.968554 111.898551,105.950528 112.159192,105.925195 L112.159192,107.574785 C111.845936,107.634708 111.446936,107.669785 111.02991,107.669785 C108.850756,107.669785 107.982603,106.940477 107.982603,105.108195 L107.982603,99.8724769 L106.481115,99.8724769 L106.481115,98.1970667 L107.982603,98.1970667 L107.982603,95.8094 L110.127167,95.8094 Z" id="Fill-24" fill="#2CDB61"></path>
                    <path d="M140.585726,0.033225641 L140.585726,112.60579 C140.585726,120.677379 134.042418,127.221174 125.970341,127.221174 L15.0975462,127.221174 C7.02546923,127.221174 0.482161538,120.677379 0.482161538,112.60579 L0.482161538,0.033225641" id="Stroke-26" stroke="#000000" stroke-width="4" stroke-linejoin="round"></path>
                </g>
            </g>
        </g>
    </g>
</svg>