<?xml version="1.0" encoding="UTF-8"?>
<svg width="380px" height="250px" viewBox="0 0 380 250" version="1.1" xmlns="http://www.w3.org/2000/svg" xmlns:xlink="http://www.w3.org/1999/xlink">
    <title>ldsm/component/img_tabs@2x</title>
    <g id="LDSM_PC" stroke="none" stroke-width="1" fill="none" fill-rule="evenodd">
        <g id="LDSM_4_overview_component_pc-Copy" transform="translate(-899.000000, -3767.000000)">
            <g id="ldsm/component/img_tabs" transform="translate(899.000000, 3767.000000)">
                <polygon id="Stroke-1" points="0 250 380 250 380 0 0 0"></polygon>
                <g id="Group-35" transform="translate(120.000000, 61.000000)">
                    <path d="M54.9758372,52.3706279 L13.6000233,52.3706279 C11.9872326,52.3706279 10.6793256,51.0627209 10.6793256,49.4514031 L10.6793256,34.7153566 C10.6793256,33.1025659 11.9872326,31.7946589 13.6000233,31.7946589 L54.9758372,31.7946589 C56.5886279,31.7946589 57.895062,33.1025659 57.895062,34.7153566 L57.895062,49.4514031 C57.895062,51.0627209 56.5886279,52.3706279 54.9758372,52.3706279" id="Fill-3" fill="#2CDB61"></path>
                    <path d="M108.191744,52.3706279 L66.8159302,52.3706279 C65.2031395,52.3706279 63.8952326,51.0627209 63.8952326,49.4514031 L63.8952326,34.7153566 C63.8952326,33.1025659 65.2031395,31.7946589 66.8159302,31.7946589 L108.191744,31.7946589 C109.804535,31.7946589 111.110969,33.1025659 111.110969,34.7153566 L111.110969,49.4514031 C111.110969,51.0627209 109.804535,52.3706279 108.191744,52.3706279" id="Fill-4" fill="#F0F0F2"></path>
                    <path d="M140.095837,52.3706279 L119.55669,52.3706279 C117.943899,52.3706279 116.637465,51.0627209 116.637465,49.4514031 L116.637465,34.7153566 C116.637465,33.1025659 117.943899,31.7946589 119.55669,31.7946589 L140.095837,31.7946589" id="Fill-5" fill="#F0F0F2"></path>
                    <path d="M1.56319402e-13,127.03945 L1.56319402e-13,14.5977442 C1.56319402e-13,6.53673643 6.53511628,0.000147286821 14.5975969,0.000147286821 L125.341085,0.000147286821 C133.403566,0.000147286821 139.938682,6.53673643 139.938682,14.5977442 L139.938682,127.03945" id="Stroke-6" stroke="#000000" stroke-width="4" stroke-linejoin="round"></path>
                    <path d="M33.3416124,1.3624031 C33.3416124,4.86193798 36.1783566,7.6972093 39.6764186,7.6972093 L100.262853,7.6972093 C103.760915,7.6972093 106.597659,4.86193798 106.597659,1.3624031 L106.597659,-2.57571742e-13 L33.3416124,-2.57571742e-13 L33.3416124,1.3624031 Z" id="Fill-7" fill="#000000"></path>
                    <path d="M33.3416124,1.3624031 C33.3416124,4.86193798 36.1783566,7.6972093 39.6764186,7.6972093 L100.262853,7.6972093 C103.760915,7.6972093 106.597659,4.86193798 106.597659,1.3624031 L106.597659,-2.57571742e-13 L33.3416124,-2.57571742e-13 L33.3416124,1.3624031 Z" id="Stroke-8" stroke="#000000" stroke-width="3.8927907" stroke-linejoin="round"></path>
                </g>
            </g>
        </g>
    </g>
</svg>