<?xml version="1.0" encoding="UTF-8"?>
<svg width="380px" height="250px" viewBox="0 0 380 250" version="1.1" xmlns="http://www.w3.org/2000/svg" xmlns:xlink="http://www.w3.org/1999/xlink">
    <title>ldsm/component/img_card@2x</title>
    <g id="LDSM_PC" stroke="none" stroke-width="1" fill="none" fill-rule="evenodd">
        <g id="LDSM_4_overview_component_pc-Copy" transform="translate(-899.000000, -4116.000000)">
            <g id="ldsm/component/img_card" transform="translate(899.000000, 4116.000000)">
                <polygon id="Stroke-1" points="0 250 380 250 380 0 0 0"></polygon>
                <g id="Group-39" transform="translate(120.000000, 61.000000)">
                    <path d="M113.756682,105.225682 L73.6475349,105.225682 C70.9595504,105.225682 68.7811783,103.04731 68.7811783,100.359326 L68.7811783,57.2661473 C68.7811783,54.5781628 70.9595504,52.3997907 73.6475349,52.3997907 L113.756682,52.3997907 C116.444667,52.3997907 118.623039,54.5781628 118.623039,57.2661473 L118.623039,100.359326 C118.623039,103.04731 116.444667,105.225682 113.756682,105.225682" id="Fill-3" fill="#82ED82"></path>
                    <path d="M59.7028605,105.225682 L19.5937132,105.225682 C16.9057287,105.225682 14.7273566,103.04731 14.7273566,100.359326 L14.7273566,57.2661473 C14.7273566,54.5781628 16.9057287,52.3997907 19.5937132,52.3997907 L59.7028605,52.3997907 C62.390845,52.3997907 64.5692171,54.5781628 64.5692171,57.2661473 L64.5692171,100.359326 C64.5692171,103.04731 62.390845,105.225682 59.7028605,105.225682" id="Fill-4" fill="#2CDB61"></path>
                    <path d="M139.939713,105.225682 L127.594132,105.225682 C124.906147,105.225682 122.727775,103.04731 122.727775,100.359326 L122.727775,57.2661473 C122.727775,54.5781628 124.906147,52.3997907 127.594132,52.3997907 L139.939713,52.3997907 L139.939713,105.225682 Z" id="Fill-5" fill="#B0F4B0"></path>
                    <path d="M-1.98951966e-13,127.039597 L-1.98951966e-13,14.5993643 C-1.98951966e-13,6.53688372 6.53511628,0.000294573644 14.5990698,0.000294573644 L125.341085,0.000294573644 C133.403566,0.000294573644 139.940155,6.53688372 139.940155,14.5993643 L139.940155,127.039597" id="Stroke-6" stroke="#000000" stroke-width="4" stroke-linejoin="round"></path>
                    <path d="M33.3416124,1.36387597 C33.3416124,4.86193798 36.1783566,7.69868217 39.6764186,7.69868217 L100.262853,7.69868217 C103.762388,7.69868217 106.597659,4.86193798 106.597659,1.36387597 L106.597659,2.6956215e-13 L33.3416124,2.6956215e-13 L33.3416124,1.36387597 Z" id="Fill-7" fill="#000000"></path>
                    <path d="M33.3416124,1.36387597 C33.3416124,4.86193798 36.1783566,7.69868217 39.6764186,7.69868217 L100.262853,7.69868217 C103.762388,7.69868217 106.597659,4.86193798 106.597659,1.36387597 L106.597659,2.6956215e-13 L33.3416124,2.6956215e-13 L33.3416124,1.36387597 Z" id="Stroke-8" stroke="#000000" stroke-width="3.8927907" stroke-linejoin="round"></path>
                    <line x1="23.004876" y1="94.3142326" x2="40.8619302" y2="94.3142326" id="Stroke-9" stroke="#FFFFFF" stroke-width="2.91922481"></line>
                    <line x1="77.0579612" y1="94.3142326" x2="94.9150155" y2="94.3142326" id="Stroke-10" stroke="#FFFFFF" stroke-width="2.91922481"></line>
                </g>
            </g>
        </g>
    </g>
</svg>