<?xml version="1.0" encoding="UTF-8"?>
<svg width="380px" height="250px" viewBox="0 0 380 250" version="1.1" xmlns="http://www.w3.org/2000/svg" xmlns:xlink="http://www.w3.org/1999/xlink">
    <title>ldsm/component/img_profile@2x</title>
    <g id="LDSM_PC" stroke="none" stroke-width="1" fill="none" fill-rule="evenodd">
        <g id="LDSM_4_overview_component_pc-Copy" transform="translate(-899.000000, -3312.000000)">
            <g id="ldsm/component/img_profile" transform="translate(899.000000, 3312.000000)">
                <polygon id="Fill-1" points="0 250 380 250 380 0 0 0"></polygon>
                <g id="Group-12" transform="translate(116.000000, 62.000000)">
                    <path d="M0.175774359,126.771556 L0.175774359,23.2960949 C0.175774359,10.6956846 10.3904667,0.481479487 22.9903897,0.481479487 L146.261415,0.481479487" id="Stroke-2" stroke="#000000" stroke-width="4" stroke-linejoin="round"></path>
                    <path d="M146.261367,0.481430769 L52.2834692,0.481430769 L52.2834692,2.61089231 C52.2834692,8.07899487 56.7163154,12.5113538 62.1839308,12.5113538 L146.261367,12.5113538 L146.261367,0.481430769 Z" id="Fill-4" fill="#000000"></path>
                    <path d="M146.261367,0.481430769 L52.2834692,0.481430769 L52.2834692,2.61089231 C52.2834692,8.07899487 56.7163154,12.5113538 62.1839308,12.5113538 L146.261367,12.5113538 L146.261367,0.481430769 Z" id="Stroke-6" stroke="#000000" stroke-width="3.8974359"></path>
                    <path d="M90.9755564,68.7296256 C90.9755564,78.6997538 86.4915564,87.6224462 79.4298897,93.5908821 C76.0323,95.9405487 66.4373,99.5325231 58.4368385,99.5325231 C50.4363769,99.5325231 40.2723513,95.9054718 37.4437872,93.5913692 C30.3826077,87.6224462 25.8981205,78.6997538 25.8981205,68.7296256 C25.8981205,50.7590359 40.4662487,36.1909077 58.4368385,36.1909077 C76.4074282,36.1909077 90.9755564,50.7590359 90.9755564,68.7296256" id="Fill-8" fill="#2CDB61"></path>
                    <path d="M69.0417615,72.5093103 C69.4251718,72.2866692 70.9023,71.3581051 71.3544026,68.2747462 C71.5663256,66.8200282 70.9709923,65.7940282 70.6260692,65.3355923 C70.6260692,65.2971051 70.6314282,65.2659256 70.6314282,65.2274385 C70.6314282,57.5451051 65.329941,52.2017205 58.4363513,52.2017205 C51.5437359,52.2017205 46.2427359,57.5451051 46.2427359,65.2274385 C46.2427359,65.2659256 46.2476077,65.2971051 46.2476077,65.3355923 C45.9026846,65.7940282 45.3073513,66.8200282 45.5192744,68.2747462 C45.9713769,71.3581051 47.4489923,72.2866692 47.8314282,72.5093103 C49.3226846,75.2833103 50.3408897,76.9567718 51.2660436,78.4173359 C52.3480692,80.1268487 52.5453769,83.1507718 50.547941,84.5523872 C49.0664282,85.5920282 41.6656846,90.6850026 37.4481718,93.5856692 C43.1145564,98.3756179 50.4363769,101.268003 58.4363513,101.268003 C66.4373,101.268003 73.7591205,98.3756179 79.4255051,93.5856692 C75.2084795,90.6850026 67.8072487,85.5920282 66.3257359,84.5523872 C64.3283,83.1507718 64.5256077,80.1268487 65.6076333,78.4173359 C66.5332744,76.9567718 67.5509923,75.2833103 69.0417615,72.5093103" id="Fill-10" fill="#FFFFFF"></path>
                </g>
            </g>
        </g>
    </g>
</svg>