<?xml version="1.0" encoding="UTF-8"?>
<svg width="380px" height="250px" viewBox="0 0 380 250" version="1.1" xmlns="http://www.w3.org/2000/svg" xmlns:xlink="http://www.w3.org/1999/xlink">
    <title>ldsm/component/img_tooltip@2x</title>
    <g id="LDSM_PC" stroke="none" stroke-width="1" fill="none" fill-rule="evenodd">
        <g id="LDSM_4_overview_component_pc-Copy" transform="translate(-1399.000000, -1761.000000)">
            <g id="ldsm/component/img_tooltip" transform="translate(1399.000000, 1761.000000)">
                <polygon id="Fill-1" points="0 250 380 250 380 0 0 0"></polygon>
                <g id="Group-20" transform="translate(120.000000, 61.000000)">
                    <path d="M140.732562,127.625728 L140.732562,15.0531641 C140.732562,6.98157436 134.189254,0.437779487 126.117177,0.437779487 L14.9613308,0.437779487 C6.88925385,0.437779487 0.345946154,6.98157436 0.345946154,15.0531641 L0.345946154,127.625728" id="Fill-2" fill="#FFFFFF"></path>
                    <path d="M113.197372,23.8182051 C113.197372,20.2598462 116.081962,17.3757436 119.639833,17.3757436 C123.198192,17.3757436 126.082295,20.2598462 126.082295,23.8182051 C126.082295,27.3765641 123.198192,30.2606667 119.639833,30.2606667 C116.081962,30.2606667 113.197372,27.3765641 113.197372,23.8182051" id="Fill-4" fill="#DFDFDF"></path>
                    <path d="M140.732562,127.625728 L140.732562,15.0531641 C140.732562,6.98157436 134.189254,0.437779487 126.117177,0.437779487 L15.2443821,0.437779487 C7.17230513,0.437779487 0.628997436,6.98157436 0.628997436,15.0531641 L0.628997436,127.625728" id="Stroke-6" stroke="#000000" stroke-width="4" stroke-linejoin="round"></path>
                    <path d="M107.351608,1.80232051 C107.351608,5.30514103 104.511838,8.14442308 101.009505,8.14442308 L40.3522487,8.14442308 C36.8494282,8.14442308 34.0101462,5.30514103 34.0101462,1.80232051 L34.0101462,0.438217949 L107.351608,0.438217949 L107.351608,1.80232051 Z" id="Fill-8" fill="#000000"></path>
                    <path d="M107.351608,1.80232051 C107.351608,5.30514103 104.511838,8.14442308 101.009505,8.14442308 L40.3522487,8.14442308 C36.8494282,8.14442308 34.0101462,5.30514103 34.0101462,1.80232051 L34.0101462,0.438217949 L107.351608,0.438217949 L107.351608,1.80232051 Z" id="Stroke-10" stroke="#000000" stroke-width="3.8974359" stroke-linejoin="round"></path>
                    <polygon id="Fill-12" fill="#2CDB61" points="119.639979 34.0993 126.81321 44.212659 112.466749 44.212659"></polygon>
                    <path d="M130.543836,76.1695385 L49.2438103,76.1695385 C47.8066308,76.1695385 46.6412974,75.0042051 46.6412974,73.5670256 L46.6412974,41.6621282 C46.6412974,40.2244615 47.8066308,39.0591282 49.2438103,39.0591282 L130.543836,39.0591282 C131.981503,39.0591282 133.146349,40.2244615 133.146349,41.6621282 L133.146349,73.5670256 C133.146349,75.0042051 131.981503,76.1695385 130.543836,76.1695385" id="Fill-14" fill="#2CDB61"></path>
                    <line x1="60.0484282" y1="52.5021154" x2="119.463864" y2="52.5021154" id="Stroke-16" stroke="#FFFFFF" stroke-width="2.63076923"></line>
                    <line x1="60.0484282" y1="62.7266974" x2="103.166249" y2="62.7266974" id="Stroke-18" stroke="#FFFFFF" stroke-width="2.63076923"></line>
                </g>
            </g>
        </g>
    </g>
</svg>