<?xml version="1.0" encoding="UTF-8"?>
<svg width="380px" height="250px" viewBox="0 0 380 250" version="1.1" xmlns="http://www.w3.org/2000/svg" xmlns:xlink="http://www.w3.org/1999/xlink">
    <title>ldsm/component/img_textfield@2x</title>
    <g id="LDSM_PC" stroke="none" stroke-width="1" fill="none" fill-rule="evenodd">
        <g id="LDSM_4_overview_component_pc-Copy" transform="translate(-899.000000, -2170.000000)">
            <g id="ldsm/component/img_textfield" transform="translate(899.000000, 2170.000000)">
                <polygon id="Fill-1" points="0 250 379.999513 250 379.999513 0 0 0"></polygon>
                <g id="Group-32" transform="translate(118.000000, 60.000000)">
                    <path d="M141.283582,129.713844 L141.283582,16.9970744 C141.283582,8.91476667 134.731505,2.36317692 126.649197,2.36317692 L15.3506077,2.36317692 C7.2683,2.36317692 0.716710256,8.91476667 0.716710256,16.9970744 L0.716710256,129.713844" id="Fill-2" stroke="#000000" stroke-width="4" stroke-linejoin="round"></path>
                    <path d="M107.859415,3.7289359 C107.859415,7.23614103 105.016236,10.0793205 101.509518,10.0793205 L40.7743128,10.0793205 C37.2671077,10.0793205 34.4239282,7.23614103 34.4239282,3.7289359 L34.4239282,2.36288462 L107.859415,2.36288462 L107.859415,3.7289359 Z" id="Fill-6" fill="#000000"></path>
                    <path d="M36.4107923,4.31174872 C36.6967667,6.46459487 38.5446385,8.13074872 40.774459,8.13074872 L101.509664,8.13074872 C103.738997,8.13074872 105.586382,6.46459487 105.872356,4.31174872 L36.4107923,4.31174872 Z M101.509664,12.0281846 L40.774459,12.0281846 C36.1978949,12.0281846 32.4748692,8.30515897 32.4748692,3.72908205 L32.4748692,2.36303077 C32.4748692,1.28685128 33.3474077,0.414312821 34.4235872,0.414312821 L107.859562,0.414312821 C108.935741,0.414312821 109.808279,1.28685128 109.808279,2.36303077 L109.808279,3.72908205 C109.808279,8.30515897 106.085254,12.0281846 101.509664,12.0281846 L101.509664,12.0281846 Z" id="Fill-8" fill="#000000"></path>
                    <polygon id="Fill-10" fill="#DFDFDF" points="125.162862 69.686559 118.556221 63.0799179 119.934451 61.7021744 126.540605 68.3088154"></polygon>
                    <polygon id="Fill-12" fill="#DFDFDF" points="119.934256 69.686559 118.556513 68.3088154 125.162667 61.7021744 126.540897 63.0799179"></polygon>
                    <polygon id="Fill-14" fill="#000000" points="15.2125897 80.6017179 127.070462 80.6017179 127.070462 78.653 15.2125897 78.653"></polygon>
                    <polygon id="Fill-16" fill="#000000" points="22.403359 70.7183077 24.3520769 70.7183077 24.3520769 60.6707179 22.403359 60.6707179"></polygon>
                    <polygon id="Fill-17" fill="#000000" points="27.2412462 69.0500103 18.5402205 64.0262154 19.5145795 62.3391128 28.2156051 67.3624205"></polygon>
                    <polygon id="Fill-18" fill="#000000" points="19.5143846 69.0500103 18.5400256 67.3624205 27.2410513 62.3391128 28.2154103 64.0262154"></polygon>
                    <polygon id="Fill-19" fill="#000000" points="36.0029744 70.7183077 37.9516923 70.7183077 37.9516923 60.6707179 36.0029744 60.6707179"></polygon>
                    <polygon id="Fill-20" fill="#000000" points="40.8406179 69.0500103 32.1391051 64.0262154 33.1134641 62.3391128 41.8149769 67.3624205"></polygon>
                    <polygon id="Fill-21" fill="#000000" points="33.1135615 69.0500103 32.1392026 67.3624205 40.8407154 62.3391128 41.8150744 64.0262154"></polygon>
                    <polygon id="Fill-22" fill="#000000" points="49.6021026 70.7183077 51.5508205 70.7183077 51.5508205 60.6707179 49.6021026 60.6707179"></polygon>
                    <polygon id="Fill-23" fill="#000000" points="54.4400385 69.0500103 45.7385256 64.0262154 46.7128846 62.3391128 55.4143974 67.3624205"></polygon>
                    <polygon id="Fill-24" fill="#000000" points="46.7129333 69.0500103 45.7385744 67.3624205 54.4400872 62.3391128 55.4144462 64.0262154"></polygon>
                    <polygon id="Fill-25" fill="#000000" points="63.2333846 70.7183077 65.1821026 70.7183077 65.1821026 60.6707179 63.2333846 60.6707179"></polygon>
                    <polygon id="Fill-26" fill="#000000" points="68.0712718 69.0500103 59.3702462 64.0262154 60.3446051 62.3391128 69.0456308 67.3624205"></polygon>
                    <polygon id="Fill-27" fill="#000000" points="60.344459 69.0500103 59.3701 67.3624205 68.0711256 62.3391128 69.0454846 64.0262154"></polygon>
                    <polygon id="Fill-28" fill="#000000" points="76.9411538 70.7183077 78.8898718 70.7183077 78.8898718 60.6707179 76.9411538 60.6707179"></polygon>
                    <polygon id="Fill-29" fill="#000000" points="81.7791385 69.0500103 73.0781128 64.0262154 74.0524718 62.3391128 82.7534974 67.3624205"></polygon>
                    <polygon id="Fill-30" fill="#000000" points="74.0523256 69.0500103 73.0779667 67.3624205 81.7789923 62.3391128 82.7533513 64.0262154"></polygon>
                    <polygon id="Fill-31" fill="#2CDB61" points="86.3744103 74.4408462 88.3231282 74.4408462 88.3231282 56.9476923 86.3744103 56.9476923"></polygon>
                </g>
            </g>
        </g>
    </g>
</svg>