<?xml version="1.0" encoding="UTF-8"?>
<svg width="381px" height="251px" viewBox="0 0 381 251" version="1.1" xmlns="http://www.w3.org/2000/svg" xmlns:xlink="http://www.w3.org/1999/xlink">
    <title>ldsm/component/img_chips@2x</title>
    <g id="LDSM_PC" stroke="none" stroke-width="1" fill="none" fill-rule="evenodd">
        <g id="LDSM_4_overview_component_pc-Copy" transform="translate(-1399.000000, -4460.000000)">
            <g id="ldsm/component/img_chips" transform="translate(1399.120775, 4460.122248)">
                <polygon id="Stroke-33" points="0 250 380 250 380 0 0 0"></polygon>
                <g id="Group-43" transform="translate(120.000000, 63.000000)">
                    <path d="M60.6234031,56.6914341 L16.276814,56.6914341 C14.6640233,56.6914341 13.3575891,55.3835271 13.3575891,53.7722093 L13.3575891,34.0770155 C13.3575891,32.4656977 14.6640233,31.1577907 16.276814,31.1577907 L60.6234031,31.1577907 C62.2361938,31.1577907 63.5426279,32.4656977 63.5426279,34.0770155 L63.5426279,53.7722093 C63.5426279,55.3835271 62.2361938,56.6914341 60.6234031,56.6914341" id="Fill-1" fill="#2CDB61"></path>
                    <path d="M94.736062,55.0617054 L94.736062,32.7860465 C94.736062,31.8875969 94.0069922,31.1585271 93.1070698,31.1585271 L70.8314109,31.1585271 C69.9314884,31.1585271 69.2024186,31.8875969 69.2024186,32.7860465 L69.2024186,55.0617054 C69.2024186,55.9616279 69.9314884,56.6906977 70.8314109,56.6906977 L93.1070698,56.6906977 C94.0069922,56.6906977 94.736062,55.9616279 94.736062,55.0617054" id="Fill-3" fill="#F0F0F2"></path>
                    <path d="M100.395264,55.0617054 L100.395264,32.7860465 C100.395264,31.8875969 101.124333,31.1585271 102.024256,31.1585271 L124.299915,31.1585271 C125.199837,31.1585271 125.928907,31.8875969 125.928907,32.7860465 L125.928907,55.0617054 C125.928907,55.9616279 125.199837,56.6906977 124.299915,56.6906977 L102.024256,56.6906977 C101.124333,56.6906977 100.395264,55.9616279 100.395264,55.0617054" id="Fill-5" fill="#F0F0F2"></path>
                    <polyline id="Stroke-7" stroke="#FFFFFF" stroke-width="2.20930233" points="45.2921705 42.6286357 49.8124031 47.1473953 56.2606202 40.6991783"></polyline>
                    <line x1="75.9203178" y1="43.9246124" x2="88.0184574" y2="43.9246124" id="Stroke-9" stroke="#DFDFDF" stroke-width="2.20930233"></line>
                    <line x1="81.9692403" y1="49.9742713" x2="81.9692403" y2="37.8746589" id="Stroke-11" stroke="#DFDFDF" stroke-width="2.20930233"></line>
                    <line x1="107.113016" y1="43.9246124" x2="119.211155" y2="43.9246124" id="Stroke-13" stroke="#DFDFDF" stroke-width="2.20930233"></line>
                    <line x1="113.161938" y1="49.9742713" x2="113.161938" y2="37.8746589" id="Stroke-15" stroke="#DFDFDF" stroke-width="2.20930233"></line>
                    <path d="M60.6234031,56.6914341 L16.276814,56.6914341 C14.6640233,56.6914341 13.3575891,55.3835271 13.3575891,53.7722093 L13.3575891,34.0770155 C13.3575891,32.4656977 14.6640233,31.1577907 16.276814,31.1577907 L60.6234031,31.1577907 C62.2361938,31.1577907 63.5426279,32.4656977 63.5426279,34.0770155 L63.5426279,53.7722093 C63.5426279,55.3835271 62.2361938,56.6914341 60.6234031,56.6914341" id="Fill-17" fill="#2CDB61"></path>
                    <path d="M94.736062,55.0617054 L94.736062,32.7860465 C94.736062,31.8875969 94.0069922,31.1585271 93.1070698,31.1585271 L70.8314109,31.1585271 C69.9314884,31.1585271 69.2024186,31.8875969 69.2024186,32.7860465 L69.2024186,55.0617054 C69.2024186,55.9616279 69.9314884,56.6906977 70.8314109,56.6906977 L93.1070698,56.6906977 C94.0069922,56.6906977 94.736062,55.9616279 94.736062,55.0617054" id="Fill-19" fill="#F0F0F2"></path>
                    <path d="M100.395264,55.0617054 L100.395264,32.7860465 C100.395264,31.8875969 101.124333,31.1585271 102.024256,31.1585271 L124.299915,31.1585271 C125.199837,31.1585271 125.928907,31.8875969 125.928907,32.7860465 L125.928907,55.0617054 C125.928907,55.9616279 125.199837,56.6906977 124.299915,56.6906977 L102.024256,56.6906977 C101.124333,56.6906977 100.395264,55.9616279 100.395264,55.0617054" id="Fill-21" fill="#F0F0F2"></path>
                    <polyline id="Stroke-23" stroke="#FFFFFF" stroke-width="2.20930233" points="45.2921705 42.6286357 49.8124031 47.1473953 56.2606202 40.6991783"></polyline>
                    <line x1="76.5250775" y1="43.9246124" x2="87.4139922" y2="43.9246124" id="Stroke-25" stroke="#DFDFDF" stroke-width="2.20930233"></line>
                    <line x1="81.9692403" y1="49.3687752" x2="81.9692403" y2="38.4798605" id="Stroke-27" stroke="#DFDFDF" stroke-width="2.20930233"></line>
                    <line x1="107.717775" y1="43.9246124" x2="118.60669" y2="43.9246124" id="Stroke-29" stroke="#DFDFDF" stroke-width="2.20930233"></line>
                    <line x1="113.161938" y1="49.3687752" x2="113.161938" y2="38.4798605" id="Stroke-31" stroke="#DFDFDF" stroke-width="2.20930233"></line>
                    <path d="M-7.10542736e-14,127.038124 L-7.10542736e-14,14.5978915 C-7.10542736e-14,6.53688372 6.53511628,0.000294573644 14.5975969,0.000294573644 L125.341085,0.000294573644 C133.403566,0.000294573644 139.938682,6.53688372 139.938682,14.5978915 L139.938682,127.038124" id="Stroke-35" stroke="#000000" stroke-width="4" stroke-linejoin="round"></path>
                    <path d="M33.3416124,1.3624031 C33.3416124,4.86046512 36.1783566,7.6972093 39.6764186,7.6972093 L100.262853,7.6972093 C103.760915,7.6972093 106.597659,4.86046512 106.597659,1.3624031 L106.597659,6.5192296e-13 L33.3416124,6.5192296e-13 L33.3416124,1.3624031 Z" id="Fill-36" fill="#000000"></path>
                    <path d="M33.3416124,1.3624031 C33.3416124,4.86046512 36.1783566,7.6972093 39.6764186,7.6972093 L100.262853,7.6972093 C103.760915,7.6972093 106.597659,4.86046512 106.597659,1.3624031 L106.597659,6.5192296e-13 L33.3416124,6.5192296e-13 L33.3416124,1.3624031 Z" id="Stroke-37" stroke="#000000" stroke-width="3.8927907" stroke-linejoin="round"></path>
                </g>
            </g>
        </g>
    </g>
</svg>