<?xml version="1.0" encoding="UTF-8"?>
<svg width="380px" height="250px" viewBox="0 0 380 250" version="1.1" xmlns="http://www.w3.org/2000/svg" xmlns:xlink="http://www.w3.org/1999/xlink">
    <title>ldsm/component/img_topnavigation@2x</title>
    <g id="LDSM_PC" stroke="none" stroke-width="1" fill="none" fill-rule="evenodd">
        <g id="LDSM_4_overview_component_pc-Copy" transform="translate(-1399.000000, -3312.000000)">
            <g id="ldsm/component/img_topnavigation" transform="translate(1399.000000, 3312.000000)">
                <polygon id="Stroke-1" points="0 250 380 250 380 0 0 0"></polygon>
                <g id="Group-31" transform="translate(120.000000, 61.000000)">
                    <path d="M140.222946,127.038271 L140.222946,14.5980388 C140.222946,6.53703101 133.687829,0.000441860465 125.623876,0.000441860465 L14.5990698,0.000441860465 C6.53658915,0.000441860465 -1.70530257e-13,6.53703101 -1.70530257e-13,14.5980388 L-1.70530257e-13,127.038271" id="Fill-3" fill="#F9F9F9"></path>
                    <path d="M0.000589147287,32.1173643 L140.223535,32.1173643 L140.223535,14.5975969 C140.223535,6.53658915 133.686946,-2.34479103e-13 125.624465,-2.34479103e-13 L14.598186,-2.34479103e-13 C6.53570543,-2.34479103e-13 0.000589147287,6.53658915 0.000589147287,14.5975969 L0.000589147287,32.1173643 Z" id="Fill-4" fill="#FFFFFF"></path>
                    <path d="M25.8002326,17.0967597 C25.8002326,13.5427287 22.9193023,10.6617984 19.3652713,10.6617984 C15.8112403,10.6617984 12.9303101,13.5427287 12.9303101,17.0967597 C12.9303101,20.6507907 15.8112403,23.5317209 19.3652713,23.5317209 C22.9193023,23.5317209 25.8002326,20.6507907 25.8002326,17.0967597" id="Fill-5" fill="#DFDFDF"></path>
                    <polygon id="Fill-6" fill="#2CDB61" points="120.857822 10.8917132 128.023326 23.3021008 113.692318 23.3021008"></polygon>
                    <path d="M140.222946,127.038271 L140.222946,14.5980388 C140.222946,6.53703101 133.687829,0.000441860465 125.623876,0.000441860465 L14.8818605,0.000441860465 C6.81937984,0.000441860465 0.282790698,6.53703101 0.282790698,14.5980388 L0.282790698,127.038271" id="Stroke-7" stroke="#000000" stroke-width="4" stroke-linejoin="round"></path>
                    <path d="M106.880597,1.36269767 C106.880597,4.86075969 104.045326,7.69750388 100.545791,7.69750388 L39.9593566,7.69750388 C36.4612946,7.69750388 33.6245504,4.86075969 33.6245504,1.36269767 L33.6245504,0.000294573643 L106.880597,0.000294573643 L106.880597,1.36269767 Z" id="Fill-8" fill="#000000"></path>
                    <path d="M106.880597,1.36269767 C106.880597,4.86075969 104.045326,7.69750388 100.545791,7.69750388 L39.9593566,7.69750388 C36.4612946,7.69750388 33.6245504,4.86075969 33.6245504,1.36269767 L33.6245504,0.000294573643 L106.880597,0.000294573643 L106.880597,1.36269767 Z" id="Stroke-9" stroke="#000000" stroke-width="3.8927907" stroke-linejoin="round"></path>
                </g>
            </g>
        </g>
    </g>
</svg>