<?xml version="1.0" encoding="UTF-8"?>
<svg width="380px" height="250px" viewBox="0 0 380 250" version="1.1" xmlns="http://www.w3.org/2000/svg" xmlns:xlink="http://www.w3.org/1999/xlink">
    <title>ldsm/component/img_toastoverlay@2x</title>
    <g id="LDSM_PC" stroke="none" stroke-width="1" fill="none" fill-rule="evenodd">
        <g id="LDSM_4_overview_component_pc-Copy" transform="translate(-899.000000, -1761.000000)">
            <g id="ldsm/component/img_toastoverlay" transform="translate(899.000000, 1761.000000)">
                <polygon id="Fill-1" points="0 250 380 250 380 0 0 0"></polygon>
                <g id="Group-14" transform="translate(136.000000, 45.000000)">
                    <g id="Group-5">
                        <path d="M0.109761538,159.262921 L0.109761538,11.9344846 C0.109761538,5.47692051 5.34450513,0.242176923 11.8020692,0.242176923 L95.7620949,0.242176923 C102.219659,0.242176923 107.454403,5.47692051 107.454403,11.9344846 L107.454403,159.262921" id="Fill-2" fill="#FFFFFF"></path>
                        <path d="M0.109761538,159.262921 L0.109761538,11.9344846 C0.109761538,5.47692051 5.34450513,0.242176923 11.8020692,0.242176923 L95.7620949,0.242176923 C102.219659,0.242176923 107.454403,5.47692051 107.454403,11.9344846 L107.454403,159.262921" id="Stroke-4" stroke="#000000" stroke-width="4" stroke-linejoin="round"></path>
                    </g>
                    <path d="M25.6856128,1.28727436 C25.6856128,3.97114615 27.8613564,6.14640256 30.544741,6.14640256 L77.0192282,6.14640256 C79.7031,6.14640256 81.8788436,3.97114615 81.8788436,1.28727436 L81.8788436,0.241787179 L25.6856128,0.241787179 L25.6856128,1.28727436 Z" id="Fill-6" fill="#000000"></path>
                    <path d="M25.6856128,1.28727436 C25.6856128,3.97114615 27.8613564,6.14640256 30.544741,6.14640256 L77.0192282,6.14640256 C79.7031,6.14640256 81.8788436,3.97114615 81.8788436,1.28727436 L81.8788436,0.241787179 L25.6856128,0.241787179 L25.6856128,1.28727436 Z" id="Stroke-8" stroke="#000000" stroke-width="3.8974359" stroke-linejoin="round"></path>
                    <path d="M81.283559,60.3627077 L81.283559,108.398605 C81.283559,110.046733 79.9350462,111.394759 78.2874051,111.394759 L29.2771487,111.394759 C27.6290205,111.394759 26.2809949,110.046733 26.2809949,108.398605 L26.2809949,60.3627077 C26.2809949,58.7145795 27.6290205,57.3665538 29.2771487,57.3665538 L78.2874051,57.3665538 C79.9350462,57.3665538 81.283559,58.7145795 81.283559,60.3627077" id="Fill-10" fill="#DFDFDF"></path>
                    <polyline id="Stroke-12" stroke="#FFFFFF" stroke-width="1.94871795" points="62.6599538 78.5459026 51.8094923 89.3963641 44.9042103 82.4915692"></polyline>
                </g>
            </g>
        </g>
    </g>
</svg>