<?xml version="1.0" encoding="UTF-8"?>
<svg width="380px" height="250px" viewBox="0 0 380 250" version="1.1" xmlns="http://www.w3.org/2000/svg" xmlns:xlink="http://www.w3.org/1999/xlink">
    <title>ldsm/component/img_fab@2x</title>
    <g id="LDSM_PC" stroke="none" stroke-width="1" fill="none" fill-rule="evenodd">
        <g id="LDSM_4_overview_component_pc-Copy" transform="translate(-1399.000000, -632.000000)">
            <g id="ldsm/component/img_fab" transform="translate(1399.000000, 632.000000)">
                <polygon id="Fill-1" points="0 250 380 250 380 0 0 0"></polygon>
                <g id="Group-16" transform="translate(120.000000, 61.000000)">
                    <g id="Group-5">
                        <path d="M140.205677,0.470225641 L140.205677,113.04279 C140.205677,121.114379 133.662369,127.658174 125.590292,127.658174 L14.7174974,127.658174 C6.64542051,127.658174 0.102112821,121.114379 0.102112821,113.04279 L0.102112821,0.470225641" id="Fill-2" fill="#EDEDED"></path>
                        <path d="M140.205677,0.470225641 L140.205677,113.04279 C140.205677,121.114379 133.662369,127.658174 125.590292,127.658174 L14.7174974,127.658174 C6.64542051,127.658174 0.102112821,121.114379 0.102112821,113.04279 L0.102112821,0.470225641" id="Stroke-4" stroke="#000000" stroke-width="4" stroke-linejoin="round"></path>
                    </g>
                    <path d="M125.702587,61.8717949 C125.702587,69.6047949 119.434049,75.8733333 111.701049,75.8733333 C103.968049,75.8733333 97.6995103,69.6047949 97.6995103,61.8717949 C97.6995103,54.1387949 103.968049,47.8702564 111.701049,47.8702564 C119.434049,47.8702564 125.702587,54.1387949 125.702587,61.8717949" id="Fill-6" fill="#FFFFFF"></path>
                    <path d="M125.702587,28.5232385 C125.702587,36.2562385 119.434049,42.5247769 111.701049,42.5247769 C103.968049,42.5247769 97.6995103,36.2562385 97.6995103,28.5232385 C97.6995103,20.7902385 103.968049,14.5217 111.701049,14.5217 C119.434049,14.5217 125.702587,20.7902385 125.702587,28.5232385" id="Fill-8" fill="#FFFFFF"></path>
                    <path d="M125.702587,95.2203513 C125.702587,102.953351 119.434049,109.22189 111.701049,109.22189 C103.968049,109.22189 97.6995103,102.953351 97.6995103,95.2203513 C97.6995103,87.4873513 103.968049,81.2188128 111.701049,81.2188128 C119.434049,81.2188128 125.702587,87.4873513 125.702587,95.2203513" id="Fill-10" fill="#2CDB61"></path>
                    <line x1="107.530549" y1="91.0498513" x2="115.871549" y2="99.3908513" id="Stroke-12" stroke="#FFFFFF" stroke-width="1.36410256"></line>
                    <line x1="107.530549" y1="99.3908513" x2="115.871549" y2="91.0498513" id="Stroke-14" stroke="#FFFFFF" stroke-width="1.36410256"></line>
                </g>
            </g>
        </g>
    </g>
</svg>