<?xml version="1.0" encoding="UTF-8"?>
<svg width="380px" height="250px" viewBox="0 0 380 250" version="1.1" xmlns="http://www.w3.org/2000/svg" xmlns:xlink="http://www.w3.org/1999/xlink">
    <title>ldsm/component/img_imggrid@2x</title>
    <g id="LDSM_PC" stroke="none" stroke-width="1" fill="none" fill-rule="evenodd">
        <g id="LDSM_4_overview_component_pc-Copy" transform="translate(-399.000000, -4116.000000)">
            <g id="ldsm/component/img_imggrid" transform="translate(399.000000, 4116.000000)">
                <polygon id="Stroke-1" points="0 250 380 250 380 0 0 0"></polygon>
                <g id="Group-37" transform="translate(120.000000, 61.000000)">
                    <path d="M2.84217094e-14,127.039597 L2.84217094e-14,14.5993643 C2.84217094e-14,6.53688372 6.53511628,0.000294573644 14.5990698,0.000294573644 L125.341085,0.000294573644 C133.403566,0.000294573644 139.940155,6.53688372 139.940155,14.5993643 L139.940155,127.039597" id="Stroke-3" stroke="#000000" stroke-width="4" stroke-linejoin="round"></path>
                    <path d="M33.3423488,1.36387597 C33.3423488,4.86193798 36.1776202,7.69868217 39.677155,7.69868217 L100.263589,7.69868217 C103.761651,7.69868217 106.598395,4.86193798 106.598395,1.36387597 L106.598395,2.6956215e-13 L33.3423488,2.6956215e-13 L33.3423488,1.36387597 Z" id="Fill-4" fill="#000000"></path>
                    <path d="M33.3423488,1.36387597 C33.3423488,4.86193798 36.1776202,7.69868217 39.677155,7.69868217 L100.263589,7.69868217 C103.761651,7.69868217 106.598395,4.86193798 106.598395,1.36387597 L106.598395,2.6956215e-13 L33.3423488,2.6956215e-13 L33.3423488,1.36387597 Z" id="Stroke-5" stroke="#000000" stroke-width="3.8927907" stroke-linejoin="round"></path>
                    <path d="M70.3481628,37.4002481 L28.4376977,37.4002481 C26.4375426,37.4002481 24.8159147,39.021876 24.8159147,41.0205581 L24.8159147,113.252961 C24.8159147,115.253116 26.4375426,116.874744 28.4376977,116.874744 L70.3481628,116.874744 L70.3481628,77.1367597 L70.3481628,37.4002481 Z" id="Fill-6" fill="#B0F4B0"></path>
                    <path d="M70.3481628,77.1374961 L115.880411,77.1374961 L115.880411,41.0212946 C115.880411,39.0211395 114.258783,37.4009845 112.260101,37.4009845 L70.3481628,37.4009845 L70.3481628,77.1374961 Z" id="Fill-7" fill="#2CDB61"></path>
                    <path d="M70.3481628,116.874744 L112.260101,116.874744 C114.258783,116.874744 115.880411,115.253116 115.880411,113.252961 L115.880411,77.1382326 L70.3481628,77.1382326 L70.3481628,116.874744 Z" id="Fill-8" fill="#82ED82"></path>
                </g>
            </g>
        </g>
    </g>
</svg>