<?xml version="1.0" encoding="UTF-8"?>
<svg width="380px" height="250px" viewBox="0 0 380 250" version="1.1" xmlns="http://www.w3.org/2000/svg" xmlns:xlink="http://www.w3.org/1999/xlink">
    <title>ldsm/component/img_list@2x</title>
    <g id="LDSM_PC" stroke="none" stroke-width="1" fill="none" fill-rule="evenodd">
        <g id="LDSM_4_overview_component_pc-Copy" transform="translate(-1399.000000, -3767.000000)">
            <g id="ldsm/component/img_list" transform="translate(1399.000000, 3767.000000)">
                <polygon id="Stroke-6" points="0 250 380 250 380 0 0 0"></polygon>
                <g id="Group-36" transform="translate(120.000000, 61.000000)">
                    <path d="M2.84217094e-14,127.03945 L2.84217094e-14,14.5977442 C2.84217094e-14,6.53673643 6.53511628,0.000147286821 14.5990698,0.000147286821 L125.341085,0.000147286821 C133.403566,0.000147286821 139.940155,6.53673643 139.940155,14.5977442 L139.940155,127.03945" id="Stroke-3" stroke="#000000" stroke-width="4" stroke-linejoin="round"></path>
                    <path d="M33.3416124,1.3624031 C33.3416124,4.86193798 36.1783566,7.69868217 39.6764186,7.69868217 L100.262853,7.69868217 C103.762388,7.69868217 106.597659,4.86193798 106.597659,1.3624031 L106.597659,-1.85185201e-13 L33.3416124,-1.85185201e-13 L33.3416124,1.3624031 Z" id="Fill-4" fill="#000000"></path>
                    <path d="M33.3416124,1.3624031 C33.3416124,4.86193798 36.1783566,7.69868217 39.6764186,7.69868217 L100.262853,7.69868217 C103.762388,7.69868217 106.597659,4.86193798 106.597659,1.3624031 L106.597659,-1.85185201e-13 L33.3416124,-1.85185201e-13 L33.3416124,1.3624031 Z" id="Stroke-5" stroke="#000000" stroke-width="3.8927907" stroke-linejoin="round"></path>
                    <path d="M121.839488,54.6344264 L121.839488,36.6124109 C121.839488,34.6446589 120.244372,33.0495426 118.275147,33.0495426 L20.9848372,33.0495426 C19.0170853,33.0495426 17.4204961,34.6446589 17.4204961,36.6124109 L17.4204961,54.6344264 C17.4204961,56.6021783 19.0170853,58.1972946 20.9848372,58.1972946 L118.275147,58.1972946 C120.244372,58.1972946 121.839488,56.6021783 121.839488,54.6344264" id="Fill-7" fill="#2CDB61"></path>
                    <path d="M37.5559302,45.5686279 C37.5559302,48.8766899 34.8738372,51.5587829 31.5643023,51.5587829 C28.2562403,51.5587829 25.5741473,48.8766899 25.5741473,45.5686279 C25.5741473,42.259093 28.2562403,39.577 31.5643023,39.577 C34.8738372,39.577 37.5559302,42.259093 37.5559302,45.5686279" id="Fill-8" fill="#FFFFFF"></path>
                    <line x1="46.9260233" y1="45.5686279" x2="84.9702093" y2="45.5686279" id="Stroke-9" stroke="#FFFFFF" stroke-width="2.20930233"></line>
                    <path d="M121.839488,86.2407054 L121.839488,68.2201628 C121.839488,66.250938 120.244372,64.6558217 118.275147,64.6558217 L20.9848372,64.6558217 C19.0170853,64.6558217 17.4204961,66.250938 17.4204961,68.2201628 L17.4204961,86.2407054 C17.4204961,88.2099302 19.0170853,89.8050465 20.9848372,89.8050465 L118.275147,89.8050465 C120.244372,89.8050465 121.839488,88.2099302 121.839488,86.2407054" id="Fill-10" fill="#82ED82"></path>
                    <path d="M37.5559302,77.230876 C37.5559302,80.538938 34.8738372,83.221031 31.5643023,83.221031 C28.2562403,83.221031 25.5741473,80.538938 25.5741473,77.230876 C25.5741473,73.9213411 28.2562403,71.2392481 31.5643023,71.2392481 C34.8738372,71.2392481 37.5559302,73.9213411 37.5559302,77.230876" id="Fill-11" fill="#FFFFFF"></path>
                    <line x1="46.9260233" y1="77.230876" x2="84.9702093" y2="77.230876" id="Stroke-12" stroke="#FFFFFF" stroke-width="2.20930233"></line>
                    <path d="M121.839488,117.848457 L121.839488,99.8264419 C121.839488,97.8586899 120.244372,96.2635736 118.275147,96.2635736 L20.9848372,96.2635736 C19.0170853,96.2635736 17.4204961,97.8586899 17.4204961,99.8264419 L17.4204961,117.848457 C17.4204961,119.816209 19.0170853,121.411326 20.9848372,121.411326 L118.275147,121.411326 C120.244372,121.411326 121.839488,119.816209 121.839488,117.848457" id="Fill-13" fill="#B0F4B0"></path>
                    <path d="M37.5559302,108.891798 C37.5559302,112.201333 34.8738372,114.883426 31.5643023,114.883426 C28.2562403,114.883426 25.5741473,112.201333 25.5741473,108.891798 C25.5741473,105.583736 28.2562403,102.901643 31.5643023,102.901643 C34.8738372,102.901643 37.5559302,105.583736 37.5559302,108.891798" id="Fill-14" fill="#FFFFFF"></path>
                    <line x1="46.9260233" y1="108.891798" x2="84.9702093" y2="108.891798" id="Stroke-15" stroke="#FFFFFF" stroke-width="2.20930233"></line>
                </g>
            </g>
        </g>
    </g>
</svg>