<?xml version="1.0" encoding="UTF-8"?>
<svg width="380px" height="250px" viewBox="0 0 380 250" version="1.1" xmlns="http://www.w3.org/2000/svg" xmlns:xlink="http://www.w3.org/1999/xlink">
    <title>ldsm/component/img_spinner@2x</title>
    <g id="LDSM_PC" stroke="none" stroke-width="1" fill="none" fill-rule="evenodd">
        <g id="LDSM_4_overview_component_pc-Copy" transform="translate(-1399.000000, -2493.000000)">
            <g id="ldsm/component/img_spinner" transform="translate(1399.000000, 2493.000000)">
                <polygon id="Stroke-1" points="0 250 380 250 380 0 0 0"></polygon>
                <g id="Group-4" transform="translate(120.000000, 61.000000)">
                    <path d="M-4.26325641e-14,127.039597 L-4.26325641e-14,14.5993643 C-4.26325641e-14,6.53688372 6.53511628,0.000294573644 14.5975969,0.000294573644 L125.341085,0.000294573644 C133.403566,0.000294573644 139.938682,6.53688372 139.938682,14.5993643 L139.938682,127.039597" id="Stroke-3" stroke="#000000" stroke-width="4" stroke-linejoin="round"></path>
                    <path d="M33.3416124,1.36387597 C33.3416124,4.86193798 36.1783566,7.69868217 39.6764186,7.69868217 L100.262853,7.69868217 C103.760915,7.69868217 106.597659,4.86193798 106.597659,1.36387597 L106.597659,2.6956215e-13 L33.3416124,2.6956215e-13 L33.3416124,1.36387597 Z" id="Fill-4" fill="#000000"></path>
                    <path d="M33.3416124,1.36387597 C33.3416124,4.86193798 36.1783566,7.69868217 39.6764186,7.69868217 L100.262853,7.69868217 C103.760915,7.69868217 106.597659,4.86193798 106.597659,1.36387597 L106.597659,2.6956215e-13 L33.3416124,2.6956215e-13 L33.3416124,1.36387597 Z" id="Stroke-5" stroke="#000000" stroke-width="3.8927907" stroke-linejoin="round"></path>
                    <path d="M83.9212326,80.0515659 C83.9212326,87.6368372 77.7720078,93.7875349 70.1852636,93.7875349 C62.5985194,93.7875349 56.4492946,87.6368372 56.4492946,80.0515659 C56.4492946,72.4662946 62.5985194,66.3155969 70.1852636,66.3155969 C77.7720078,66.3155969 83.9212326,72.4662946 83.9212326,80.0515659 Z" id="Stroke-6" stroke="#F0F0F2" stroke-width="2.91922481"></path>
                    <path d="M70.1857054,66.3154496 C77.7709767,66.3154496 83.9216744,72.4661473 83.9216744,80.0514186 C83.9216744,87.6381628 77.7709767,93.7873876 70.1857054,93.7873876 C65.719969,93.7873876 61.752062,91.6561473 59.2437674,88.3569225" id="Stroke-7" stroke="#C8C8C8" stroke-width="2.91922481" stroke-linejoin="round"></path>
                </g>
            </g>
        </g>
    </g>
</svg>