<?xml version="1.0" encoding="UTF-8"?>
<svg width="380px" height="250px" viewBox="0 0 380 250" version="1.1" xmlns="http://www.w3.org/2000/svg" xmlns:xlink="http://www.w3.org/1999/xlink">
    <title>ldsm/component/img_searchbar@2x</title>
    <g id="LDSM_PC" stroke="none" stroke-width="1" fill="none" fill-rule="evenodd">
        <g id="LDSM_4_overview_component_pc-Copy" transform="translate(-1399.000000, -2170.000000)">
            <g id="ldsm/component/img_searchbar" transform="translate(1399.000000, 2170.000000)">
                <polygon id="Fill-1" points="0 250 380 250 380 0 0 0"></polygon>
                <g id="Group-26" transform="translate(119.000000, 60.000000)">
                    <path d="M141.386244,129.688203 L141.386244,16.9714333 C141.386244,8.88912564 134.834167,2.3375359 126.751859,2.3375359 L15.4532692,2.3375359 C7.37096154,2.3375359 0.819371795,8.88912564 0.819371795,16.9714333 L0.819371795,129.688203" id="Fill-2" stroke="#000000" stroke-width="4" stroke-linejoin="round"></path>
                    <path d="M107.962126,3.70329487 C107.962126,7.2105 105.118946,10.0536795 101.611741,10.0536795 L40.8770231,10.0536795 C37.3698179,10.0536795 34.5266385,7.2105 34.5266385,3.70329487 L34.5266385,2.33724359 L107.962126,2.33724359 L107.962126,3.70329487 Z" id="Fill-6" fill="#000000"></path>
                    <path d="M36.5136974,4.28610769 C36.7996718,6.43895385 38.6475436,8.10510769 40.8768769,8.10510769 L101.611595,8.10510769 C103.840928,8.10510769 105.6888,6.43895385 105.974774,4.28610769 L36.5136974,4.28610769 Z M101.611595,12.0025436 L40.8768769,12.0025436 C36.3008,12.0025436 32.5777744,8.27951795 32.5777744,3.70344103 L32.5777744,2.33738974 C32.5777744,1.26121026 33.4503128,0.388671795 34.5264923,0.388671795 L107.961979,0.388671795 C109.038159,0.388671795 109.910697,1.26121026 109.910697,2.33738974 L109.910697,3.70344103 C109.910697,8.27951795 106.188159,12.0025436 101.611595,12.0025436 L101.611595,12.0025436 Z" id="Fill-8" fill="#000000"></path>
                    <path d="M126.945951,64.3740462 L15.5426179,64.3740462 C13.9281051,64.3740462 12.619541,63.0649949 12.619541,61.4509692 L12.619541,40.3760718 C12.619541,38.761559 13.9281051,37.4529949 15.5426179,37.4529949 L126.945951,37.4529949 C128.560464,37.4529949 129.869028,38.761559 129.869028,40.3760718 L129.869028,61.4509692 C129.869028,63.0649949 128.560464,64.3740462 126.945951,64.3740462" id="Fill-10" fill="#F0F0F2"></path>
                    <path d="M25.360941,53.7396 C23.2270949,53.7396 21.4912744,52.0037795 21.4912744,49.8694462 C21.4912744,47.7351128 23.2270949,45.9992923 25.360941,45.9992923 C27.4952744,45.9992923 29.2310949,47.7351128 29.2310949,49.8694462 C29.2310949,52.0037795 27.4952744,53.7396 25.360941,53.7396 L25.360941,53.7396 Z M29.6179154,53.0848308 C30.2960692,52.1889077 30.7038385,51.0771641 30.7038385,49.8694462 C30.7038385,46.9234718 28.3074026,44.5265487 25.360941,44.5265487 C22.4149667,44.5265487 20.0185308,46.9234718 20.0185308,49.8694462 C20.0185308,52.8154205 22.4149667,55.2123436 25.360941,55.2123436 C26.568659,55.2123436 27.6808897,54.8045744 28.5773,54.1259333 L32.2730436,57.8221641 L33.313659,56.7810615 L29.6179154,53.0848308 Z" id="Fill-12" fill="#000000"></path>
                    <path d="M39.4215744,53.5999256 C39.5233949,54.6293359 40.4047026,55.4877462 42.0430872,55.4877462 C43.5250872,55.4877462 44.4770359,54.7701308 44.4770359,53.6077205 C44.4770359,52.7264128 43.9231128,52.2270538 42.7373179,51.9225667 L40.8650872,51.4310026 C39.6008564,51.1031308 38.3760872,50.2997718 38.3760872,48.6380026 C38.3760872,46.6410538 40.1552667,45.5721821 42.0664718,45.5721821 C43.8763436,45.5721821 45.7018051,46.5319256 45.7485744,48.5990282 L44.3990872,48.5990282 C44.3050615,47.5774128 43.5250872,46.7735667 42.0348051,46.7735667 C40.7164974,46.7735667 39.7567538,47.4059256 39.7567538,48.5449513 C39.7567538,49.301541 40.2332154,49.863259 41.2553179,50.1204897 L43.0958821,50.6120538 C44.7342667,51.041259 45.8654974,51.7978487 45.8654974,53.5063872 C45.8654974,55.6046692 44.1101897,56.6969256 41.8944974,56.6969256 C39.0703179,56.6969256 38.0954718,54.9805923 38.0564974,53.5999256 L39.4215744,53.5999256 Z" id="Fill-14" fill="#DFDFDF"></path>
                    <path d="M52.8708462,51.6184205 L52.8708462,51.5950359 C52.8708462,50.2923179 52.0674872,49.2624205 50.8427179,49.2624205 C49.5940769,49.2624205 48.799,50.2996256 48.799,51.5950359 L48.799,51.6184205 L52.8708462,51.6184205 Z M47.4573077,52.765241 L47.4573077,51.8444718 C47.4573077,49.6838308 48.6815897,48.1389846 50.8349231,48.1389846 C52.9804615,48.1389846 54.2130256,49.6838308 54.2130256,51.9380103 L54.2130256,52.7028821 L48.799,52.7028821 L48.799,52.8509846 C48.799,54.4109333 49.5940769,55.4798051 50.9284615,55.4798051 C51.8804103,55.4798051 52.5044872,55.0043179 52.7695128,54.2394462 L54.1034103,54.2394462 C53.7916154,55.5972154 52.7071538,56.603241 50.8972821,56.603241 C48.7600256,56.603241 47.4573077,55.0978564 47.4573077,52.765241 L47.4573077,52.765241 Z" id="Fill-16" fill="#DFDFDF"></path>
                    <path d="M60.8127487,53.7481256 L60.8127487,52.7961769 L58.7529538,52.7961769 C57.6300051,52.7961769 57.1462359,53.3267154 57.1462359,54.0677154 C57.1462359,55.0352538 57.9495949,55.4878436 58.8080051,55.4878436 C59.9543385,55.4878436 60.8127487,54.7702282 60.8127487,53.7481256 M58.4484667,56.6029974 C56.8651333,56.6029974 55.7728769,55.6203564 55.7728769,54.1144846 C55.7728769,52.6792538 56.7715949,51.7745615 58.6516205,51.7667667 L60.8127487,51.7667667 L60.8127487,50.931741 C60.8127487,49.8550744 60.1886718,49.2621769 59.0803385,49.2621769 C58.0275436,49.2621769 57.4268513,49.8005103 57.3489026,50.6199462 L56.085159,50.6199462 C56.1709026,49.1842282 57.1462359,48.138741 59.1275949,48.138741 C60.8751077,48.138741 62.1466462,49.0906897 62.1466462,50.8148179 L62.1466462,56.4704846 L60.8595179,56.4704846 L60.8595179,55.4488692 L60.8205436,55.4488692 C60.4069282,56.1119205 59.6581333,56.6029974 58.4484667,56.6029974" id="Fill-18" fill="#DFDFDF"></path>
                    <path d="M64.4637205,48.2716436 L65.8054128,48.2716436 L65.8054128,49.2776692 L65.8443872,49.2776692 C66.0860282,48.7865923 66.7027974,48.1469256 67.8647205,48.1469256 C68.0366949,48.1469256 68.2081821,48.1625154 68.3718744,48.1859 L68.3718744,49.4106692 C68.2310795,49.3872846 67.9660538,49.3794897 67.7166179,49.3794897 C66.2653103,49.3794897 65.8132077,50.2841821 65.8132077,51.3920282 L65.8132077,56.4708744 L64.4637205,56.4708744 L64.4637205,48.2716436 Z" id="Fill-20" fill="#DFDFDF"></path>
                    <path d="M69.5420308,51.9305077 C69.5420308,49.7226103 70.8062615,48.1387897 72.9430308,48.1387897 C74.8391333,48.1387897 75.9937487,49.3947385 76.0639026,50.6511744 L74.7455949,50.6511744 C74.5663128,49.9564564 73.9183641,49.3245846 73.0292615,49.3245846 C71.6719795,49.3245846 70.8842103,50.3310974 70.8842103,51.9850718 L70.8842103,52.7494564 C70.8842103,54.3566615 71.7260564,55.4177385 73.0370564,55.4177385 C74.0586718,55.4177385 74.6598513,54.8716103 74.8079538,54.2158667 L76.1267487,54.2158667 C75.853441,55.6204051 74.8235436,56.6030462 72.9430308,56.6030462 C70.7672872,56.6030462 69.5420308,54.9261744 69.5420308,52.7416615 L69.5420308,51.9305077 Z" id="Fill-22" fill="#DFDFDF"></path>
                    <path d="M78.0219744,45.2603385 L79.3636667,45.2603385 L79.3636667,49.3560564 L79.402641,49.3560564 C79.7071282,48.8333128 80.4637179,48.1390821 81.7898205,48.1390821 C83.4827692,48.1390821 84.7309231,49.2157487 84.7309231,51.2126974 L84.7309231,56.4708256 L83.3892308,56.4708256 L83.3892308,51.4387487 C83.3892308,50.0580821 82.5853846,49.3560564 81.384,49.3560564 C79.9721538,49.3560564 79.3636667,50.3547744 79.3636667,51.4777231 L79.3636667,56.4708256 L78.0219744,56.4708256 L78.0219744,45.2603385 Z" id="Fill-24" fill="#DFDFDF"></path>
                </g>
            </g>
        </g>
    </g>
</svg>