<?xml version="1.0" encoding="UTF-8"?>
<svg width="380px" height="250px" viewBox="0 0 380 250" version="1.1" xmlns="http://www.w3.org/2000/svg" xmlns:xlink="http://www.w3.org/1999/xlink">
    <title>ldsm/component/img_bottomsheet@2x</title>
    <g id="LDSM_PC" stroke="none" stroke-width="1" fill="none" fill-rule="evenodd">
        <g id="LDSM_4_overview_component_pc-Copy" transform="translate(-1399.000000, -4116.000000)">
            <g id="ldsm/component/img_bottomsheet" transform="translate(1399.000000, 4116.000000)">
                <polygon id="Stroke-1" points="0 250 380 250 380 0 0 0"></polygon>
                <g id="Group-40" transform="translate(139.000000, 49.000000)">
                    <path d="M0.0190775194,151.050961 L0.0190775194,11.2536744 C0.0190775194,5.12654264 4.98706202,0.15855814 11.1141938,0.15855814 L90.7831085,0.15855814 C96.9102403,0.15855814 101.876752,5.12654264 101.876752,11.2536744 L101.876752,151.050961" id="Fill-3" fill="#EDEDED"></path>
                    <path d="M0.0190775194,151.050961 L0.0190775194,11.2536744 C0.0190775194,5.12654264 4.98706202,0.15855814 11.1141938,0.15855814 L90.7831085,0.15855814 C96.9102403,0.15855814 101.876752,5.12654264 101.876752,11.2536744 L101.876752,151.050961" id="Stroke-4" stroke="#000000" stroke-width="4" stroke-linejoin="round"></path>
                    <path d="M24.2875271,1.15053488 C24.2875271,3.69712403 26.3510155,5.76208527 28.8976047,5.76208527 L72.9967519,5.76208527 C75.5433411,5.76208527 77.6083023,3.69712403 77.6083023,1.15053488 L77.6083023,0.157821705 L24.2875271,0.157821705 L24.2875271,1.15053488 Z" id="Fill-6" fill="#000000"></path>
                    <path d="M24.2875271,1.15053488 C24.2875271,3.69712403 26.3510155,5.76208527 28.8976047,5.76208527 L72.9967519,5.76208527 C75.5433411,5.76208527 77.6083023,3.69712403 77.6083023,1.15053488 L77.6083023,0.157821705 L24.2875271,0.157821705 L24.2875271,1.15053488 Z" id="Stroke-7" stroke="#000000" stroke-width="3.8927907" stroke-linejoin="round"></path>
                    <path d="M96.3300775,151.050961 L5.56604651,151.050961 L5.56604651,50.890031 C5.56604651,45.5155349 9.9227907,41.1587907 15.2987597,41.1587907 L86.5973643,41.1587907 C91.9733333,41.1587907 96.3300775,45.5155349 96.3300775,50.890031 L96.3300775,151.050961 Z" id="Fill-8" fill="#FFFFFF"></path>
                    <line x1="40.038969" y1="48.9051938" x2="61.8565659" y2="48.9051938" id="Stroke-9" stroke="#DFDFDF" stroke-width="2.91922481" stroke-linecap="round"></line>
                    <line x1="25.8244651" y1="84.0454729" x2="76.0713643" y2="84.0454729" id="Stroke-10" stroke="#F0F0F2" stroke-width="2.91922481"></line>
                    <line x1="25.8244651" y1="96.0355039" x2="76.0713643" y2="96.0355039" id="Stroke-11" stroke="#F0F0F2" stroke-width="2.91922481"></line>
                    <line x1="25.8244651" y1="108.027008" x2="76.0713643" y2="108.027008" id="Stroke-12" stroke="#F0F0F2" stroke-width="2.91922481"></line>
                    <line x1="25.8244651" y1="120.017039" x2="76.0713643" y2="120.017039" id="Stroke-13" stroke="#F0F0F2" stroke-width="2.91922481"></line>
                </g>
            </g>
        </g>
    </g>
</svg>