<?xml version="1.0" encoding="UTF-8"?>
<svg width="380px" height="250px" viewBox="0 0 380 250" version="1.1" xmlns="http://www.w3.org/2000/svg" xmlns:xlink="http://www.w3.org/1999/xlink">
    <title>ldsm/component/img_videoplayer@2x</title>
    <g id="LDSM_PC" stroke="none" stroke-width="1" fill="none" fill-rule="evenodd">
        <g id="LDSM_4_overview_component_pc-Copy" transform="translate(-399.000000, -3312.000000)">
            <g id="ldsm/component/img_videoplayer" transform="translate(399.000000, 3312.000000)">
                <polygon id="Fill-1" points="0 250 380 250 380 0 0 0"></polygon>
                <g id="Group-18" transform="translate(120.000000, 61.000000)">
                    <path d="M140.437574,127.634497 L140.437574,14.9177282 C140.437574,6.83542051 133.885497,0.28334359 125.80319,0.28334359 L14.7881385,0.28334359 C6.70583077,0.28334359 0.153753846,6.83542051 0.153753846,14.9177282 L0.153753846,127.634497" id="Stroke-2" stroke="#000000" stroke-width="4" stroke-linejoin="round"></path>
                    <path d="M107.013456,1.64958974 C107.013456,5.15630769 104.170277,7.99948718 100.663072,7.99948718 L39.9278667,7.99948718 C36.4211487,7.99948718 33.5774821,5.15630769 33.5774821,1.64958974 L33.5774821,0.283051282 L107.013456,0.283051282 L107.013456,1.64958974 Z" id="Fill-4" fill="#000000"></path>
                    <path d="M107.013456,1.64958974 C107.013456,5.15630769 104.170277,7.99948718 100.663072,7.99948718 L39.9278667,7.99948718 C36.4211487,7.99948718 33.5774821,5.15630769 33.5774821,1.64958974 L33.5774821,0.283051282 L107.013456,0.283051282 L107.013456,1.64958974 Z" id="Stroke-6" stroke="#000000" stroke-width="3.8974359" stroke-linejoin="round"></path>
                    <path d="M16.5269795,34.6864487 L124.064056,34.6864487 C126.568646,34.6864487 128.598723,36.7170128 128.598723,39.2216026 L128.598723,104.296115 C128.598723,106.800218 126.568646,108.830782 124.064056,108.830782 L16.5269795,108.830782 C14.0223897,108.830782 11.9923128,106.800218 11.9923128,104.296115 L11.9923128,39.2216026 C11.9923128,36.7170128 14.0223897,34.6864487 16.5269795,34.6864487" id="Fill-8" fill="#2CDB61"></path>
                    <path d="M65.091759,74.2393333 L65.091759,60.7693077 C65.091759,60.2212308 65.6856308,59.8792308 66.1591692,60.1549744 L77.7438103,66.8897436 C78.2149128,67.1640256 78.2149128,67.8441282 77.7438103,68.1184103 L66.1591692,74.8536667 C65.6856308,75.1284359 65.091759,74.7869231 65.091759,74.2393333" id="Fill-10" fill="#FFFFFF"></path>
                    <line x1="21.0514641" y1="99.5332051" x2="119.539669" y2="99.5332051" id="Stroke-12" stroke="#82ED82" stroke-width="2.43589744" stroke-linejoin="round"></line>
                    <line x1="21.0514641" y1="99.5332051" x2="52.1115923" y2="99.5332051" id="Stroke-14" stroke="#FFFFFF" stroke-width="2.43589744" stroke-linejoin="round"></line>
                    <path d="M55.4925692,99.5332051 C55.4925692,101.400564 53.9789026,102.913744 52.1115436,102.913744 C50.2441846,102.913744 48.7305179,101.400564 48.7305179,99.5332051 C48.7305179,97.6658462 50.2441846,96.1521795 52.1115436,96.1521795 C53.9789026,96.1521795 55.4925692,97.6658462 55.4925692,99.5332051" id="Fill-16" fill="#FFFFFF"></path>
                </g>
            </g>
        </g>
    </g>
</svg>