<?xml version="1.0" encoding="UTF-8"?>
<svg width="380px" height="250px" viewBox="0 0 380 250" version="1.1" xmlns="http://www.w3.org/2000/svg" xmlns:xlink="http://www.w3.org/1999/xlink">
    <title>ldsm/component/img_snackbar@2x</title>
    <g id="LDSM_PC" stroke="none" stroke-width="1" fill="none" fill-rule="evenodd">
        <g id="LDSM_4_overview_component_pc-Copy" transform="translate(-399.000000, -1761.000000)">
            <g id="ldsm/component/img_snackbar" transform="translate(399.000000, 1761.000000)">
                <polygon id="Stroke-1" points="0 250 380 250 380 0 0 0"></polygon>
                <g id="Group-2" transform="translate(120.000000, 61.000000)">
                    <path d="M140.222946,32.1188372 L-5.68434189e-14,32.1188372 L-5.68434189e-14,14.5990698 C-5.68434189e-14,6.53658915 6.53658915,6.75015599e-14 14.5990698,6.75015599e-14 L125.625349,6.75015599e-14 C133.687829,6.75015599e-14 140.222946,6.53658915 140.222946,14.5990698 L140.222946,32.1188372 Z" id="Fill-3" fill="#2CDB61"></path>
                    <path d="M0.000589147287,127.039744 L0.000589147287,14.5995116 C0.000589147287,6.53703101 6.53570543,0.000441860465 14.5996589,0.000441860465 L125.343147,0.000441860465 C133.404155,0.000441860465 139.940744,6.53703101 139.940744,14.5995116 L139.940744,127.039744" id="Stroke-4" stroke="#000000" stroke-width="4" stroke-linejoin="round"></path>
                    <path d="M33.342938,1.36343411 C33.342938,4.86149612 36.1796822,7.69824031 39.6777442,7.69824031 L100.264178,7.69824031 C103.76224,7.69824031 106.598984,4.86149612 106.598984,1.36343411 L106.598984,0.00103100775 L33.342938,0.00103100775 L33.342938,1.36343411 Z" id="Fill-5" fill="#000000"></path>
                    <path d="M33.342938,1.36343411 C33.342938,4.86149612 36.1796822,7.69824031 39.6777442,7.69824031 L100.264178,7.69824031 C103.76224,7.69824031 106.598984,4.86149612 106.598984,1.36343411 L106.598984,0.00103100775 L33.342938,0.00103100775 L33.342938,1.36343411 Z" id="Stroke-6" stroke="#000000" stroke-width="3.8927907" stroke-linejoin="round"></path>
                    <line x1="116.041543" y1="11.8230078" x2="126.591698" y2="22.3731628" id="Stroke-7" stroke="#FFFFFF" stroke-width="2.91922481"></line>
                    <line x1="126.591109" y1="11.8230078" x2="116.040953" y2="22.3731628" id="Stroke-8" stroke="#FFFFFF" stroke-width="2.91922481"></line>
                </g>
            </g>
        </g>
    </g>
</svg>