<?xml version="1.0" encoding="UTF-8"?>
<svg width="380px" height="250px" viewBox="0 0 380 250" version="1.1" xmlns="http://www.w3.org/2000/svg" xmlns:xlink="http://www.w3.org/1999/xlink">
    <title>ldsm/component/img_boxbtn@2x</title>
    <g id="LDSM_PC" stroke="none" stroke-width="1" fill="none" fill-rule="evenodd">
        <g id="LDSM_4_overview_component_pc-Copy" transform="translate(-399.000000, -632.000000)">
            <g id="ldsm/component/img_boxbtn" transform="translate(399.000000, 632.000000)">
                <polygon id="Fill-1" points="0 250 380 250 380 0 0 0"></polygon>
                <g id="Group-6" transform="translate(120.000000, 61.000000)">
                    <path d="M131.535051,110.587551 L131.535051,87.9015513 C131.535051,85.932859 129.939051,84.336859 127.970359,84.336859 L12.3373333,84.336859 C10.368641,84.336859 8.77264103,85.932859 8.77264103,87.9015513 L8.77264103,110.587551 C8.77264103,112.556244 10.368641,114.152244 12.3373333,114.152244 L127.970359,114.152244 C129.939051,114.152244 131.535051,112.556244 131.535051,110.587551" id="Fill-2" fill="#2CDB61"></path>
                    <path d="M140.205677,0.470225641 L140.205677,113.04279 C140.205677,121.114379 133.662369,127.658174 125.590292,127.658174 L14.7174974,127.658174 C6.64542051,127.658174 0.102112821,121.114379 0.102112821,113.04279 L0.102112821,0.470225641" id="Stroke-4" stroke="#000000" stroke-width="4" stroke-linejoin="round"></path>
                </g>
            </g>
        </g>
    </g>
</svg>