<?xml version="1.0" encoding="UTF-8"?>
<svg width="380px" height="250px" viewBox="0 0 380 250" version="1.1" xmlns="http://www.w3.org/2000/svg" xmlns:xlink="http://www.w3.org/1999/xlink">
    <title>ldsm/component/img_pagination@2x</title>
    <g id="LDSM_PC" stroke="none" stroke-width="1" fill="none" fill-rule="evenodd">
        <g id="LDSM_4_overview_component_pc-Copy" transform="translate(-1399.000000, -1400.000000)">
            <g id="ldsm/component/img_pagination" transform="translate(1399.000000, 1400.000000)">
                <polygon id="Fill-1" points="0 250 380 250 380 0 0 0"></polygon>
                <g id="Group-12" transform="translate(120.000000, 61.000000)">
                    <path d="M131.867795,0.563471795 L8.43989744,0.563471795 L8.43989744,61.7809846 C8.43989744,65.5478564 11.4935385,68.6014974 15.2604103,68.6014974 L125.047282,68.6014974 C128.814154,68.6014974 131.867795,65.5478564 131.867795,61.7809846 L131.867795,0.563471795 Z" id="Fill-2" fill="#F0F0F2"></path>
                    <path d="M140.205677,0.18454359 L140.205677,112.757108 C140.205677,120.828697 133.662369,127.372492 125.590292,127.372492 L14.7174974,127.372492 C6.64542051,127.372492 0.102112821,120.828697 0.102112821,112.757108 L0.102112821,0.18454359" id="Stroke-4" stroke="#000000" stroke-width="4" stroke-linejoin="round"></path>
                    <path d="M63.8205128,76.7318897 C63.8205128,78.1671205 62.6571282,79.3300179 61.2223846,79.3300179 C59.7871538,79.3300179 58.6237692,78.1671205 58.6237692,76.7318897 C58.6237692,75.296659 59.7871538,74.1337615 61.2223846,74.1337615 C62.6571282,74.1337615 63.8205128,75.296659 63.8205128,76.7318897" id="Fill-6" fill="#2CDB61"></path>
                    <path d="M72.7521205,76.7318897 C72.7521205,78.1671205 71.5887359,79.3300179 70.1539923,79.3300179 C68.7187615,79.3300179 67.5553769,78.1671205 67.5553769,76.7318897 C67.5553769,75.296659 68.7187615,74.1337615 70.1539923,74.1337615 C71.5887359,74.1337615 72.7521205,75.296659 72.7521205,76.7318897" id="Fill-8" fill="#DFDFDF"></path>
                    <path d="M81.6837769,76.7318897 C81.6837769,78.1671205 80.5203923,79.3300179 79.0856487,79.3300179 C77.6504179,79.3300179 76.4870333,78.1671205 76.4870333,76.7318897 C76.4870333,75.296659 77.6504179,74.1337615 79.0856487,74.1337615 C80.5203923,74.1337615 81.6837769,75.296659 81.6837769,76.7318897" id="Fill-10" fill="#DFDFDF"></path>
                </g>
            </g>
        </g>
    </g>
</svg>