<?xml version="1.0" encoding="UTF-8"?>
<svg width="380px" height="250px" viewBox="0 0 380 250" version="1.1" xmlns="http://www.w3.org/2000/svg" xmlns:xlink="http://www.w3.org/1999/xlink">
    <title>ldsm/component/img_iconbtn@2x</title>
    <defs>
        <polygon id="path-1" points="0.208512821 0.231166667 79.9524872 0.231166667 79.9524872 12.8457051 0.208512821 12.8457051"></polygon>
        <polygon id="path-3" points="0.208512821 0.231166667 79.9524872 0.231166667 79.9524872 12.8457051 0.208512821 12.8457051"></polygon>
    </defs>
    <g id="LDSM_PC" stroke="none" stroke-width="1" fill="none" fill-rule="evenodd">
        <g id="LDSM_4_overview_component_pc-Copy" transform="translate(-399.000000, -1006.000000)">
            <g id="ldsm/component/img_iconbtn" transform="translate(399.000000, 1006.000000)">
                <polygon id="Fill-1" points="0 250 380 250 380 0 0 0"></polygon>
                <path d="M192.311715,148.42001 L196.044972,148.42001 L194.265305,142.969933 L194.110382,142.969933 L192.311715,148.42001 Z M196.590613,150.227933 L191.767049,150.227933 L190.640203,153.616267 L188.2691,153.616267 L192.92069,140.507728 L195.555356,140.507728 L200.214741,153.616267 L197.698946,153.616267 L196.590613,150.227933 Z" id="Fill-2" fill="#2CDB61"></path>
                <g id="Group-9" transform="translate(190.000000, 99.384615)" fill="#2CDB61">
                    <path d="M13.7510795,49.2715795 C13.7510795,51.3070154 14.6864641,52.5235026 16.2308231,52.5235026 C17.7844385,52.5235026 18.7290795,51.2880154 18.7290795,49.2715795 C18.7290795,47.2644 17.7761564,46.0196564 16.2308231,46.0196564 C14.6957205,46.0196564 13.7510795,47.2458872 13.7510795,49.2715795 M11.4437974,49.2623231 C11.4437974,46.119041 13.0246949,44.1386564 15.5322077,44.1386564 C16.8943615,44.1386564 18.0207205,44.7929385 18.5478487,45.8832462 L18.7022846,45.8832462 L18.7022846,40.4599641 L20.9554897,40.4599641 L20.9554897,54.232041 L18.7743872,54.232041 L18.7743872,52.6599128 L18.6204385,52.6599128 C18.057259,53.7502205 16.9128744,54.3952462 15.5322077,54.3952462 C13.0149513,54.3952462 11.4437974,52.4148615 11.4437974,49.2623231" id="Fill-3"></path>
                    <path d="M25.3175487,49.2715795 C25.3175487,51.3070154 26.2529333,52.5235026 27.7972923,52.5235026 C29.3509077,52.5235026 30.2955487,51.2880154 30.2955487,49.2715795 C30.2955487,47.2644 29.3426256,46.0196564 27.7972923,46.0196564 C26.2621897,46.0196564 25.3175487,47.2458872 25.3175487,49.2715795 M23.0102667,49.2623231 C23.0102667,46.119041 24.5911641,44.1386564 27.0986769,44.1386564 C28.4608308,44.1386564 29.5871897,44.7929385 30.1143179,45.8832462 L30.2687538,45.8832462 L30.2687538,40.4599641 L32.521959,40.4599641 L32.521959,54.232041 L30.3408564,54.232041 L30.3408564,52.6599128 L30.1869077,52.6599128 C29.6237282,53.7502205 28.4793436,54.3952462 27.0986769,54.3952462 C24.5814205,54.3952462 23.0102667,52.4148615 23.0102667,49.2623231" id="Fill-5"></path>
                    <polygon id="Fill-7" points="32.5217641 14.1867154 18.3779692 14.1867154 18.3779692 0.0429205128 14.3368154 0.0429205128 14.3368154 14.1867154 0.193020513 14.1867154 0.193020513 18.2278692 14.3368154 18.2278692 14.3368154 32.3716641 18.3779692 32.3716641 18.3779692 18.2278692 32.5217641 18.2278692"></polygon>
                </g>
                <g id="Group-19" transform="translate(119.000000, 61.000000)">
                    <g id="Group-12" stroke="#000000" stroke-linejoin="round" stroke-width="4">
                        <path d="M142.386049,127.231113 L142.386049,24.1541641 C142.386049,10.9418564 131.675408,0.231215385 118.4631,0.231215385 L0.0390230769,0.231215385" id="Stroke-10"></path>
                    </g>
                    <g id="Group-15" transform="translate(7.794872, 0.000000)">
                        <mask id="mask-2" fill="white">
                            <use xlink:href="#path-1"></use>
                        </mask>
                        <g id="Clip-14"></g>
                        <path d="M79.9524872,2.46439744 C79.9524872,8.19752564 75.3047949,12.8457051 69.5711795,12.8457051 L-29.7135641,12.8457051 C-35.4466923,12.8457051 -40.0948718,8.19752564 -40.0948718,2.46439744 L-40.0948718,0.231166667 L79.9524872,0.231166667 L79.9524872,2.46439744 Z" id="Fill-13" fill="#000000" mask="url(#mask-2)"></path>
                    </g>
                    <g id="Group-18" transform="translate(7.794872, 0.000000)">
                        <mask id="mask-4" fill="white">
                            <use xlink:href="#path-3"></use>
                        </mask>
                        <g id="Clip-17"></g>
                        <path d="M79.9524872,2.46439744 C79.9524872,8.19752564 75.3047949,12.8457051 69.5711795,12.8457051 L-29.7135641,12.8457051 C-35.4466923,12.8457051 -40.0948718,8.19752564 -40.0948718,2.46439744 L-40.0948718,0.231166667 L79.9524872,0.231166667 L79.9524872,2.46439744 Z" id="Stroke-16" stroke="#000000" stroke-width="3.8974359" stroke-linejoin="round" mask="url(#mask-4)"></path>
                    </g>
                </g>
            </g>
        </g>
    </g>
</svg>