<?xml version="1.0" encoding="UTF-8"?>
<svg width="380px" height="250px" viewBox="0 0 380 250" version="1.1" xmlns="http://www.w3.org/2000/svg" xmlns:xlink="http://www.w3.org/1999/xlink">
    <title>ldsm/component/img_popup@2x</title>
    <g id="LDSM_PC" stroke="none" stroke-width="1" fill="none" fill-rule="evenodd">
        <g id="LDSM_4_overview_component_pc-Copy" transform="translate(-899.000000, -4460.000000)">
            <g id="ldsm/component/img_popup" transform="translate(899.000000, 4460.000000)">
                <polygon id="Stroke-1" points="0 250 380 250 380 0 0 0"></polygon>
                <g id="Group-42" transform="translate(139.000000, 50.000000)">
                    <path d="M-5.68434189e-14,150.892992 L-5.68434189e-14,11.0942326 C-5.68434189e-14,4.96710078 4.9679845,0.000589147287 11.0951163,0.000589147287 L90.764031,0.000589147287 C96.8911628,0.000589147287 101.859147,4.96710078 101.859147,11.0942326 L101.859147,150.892992" id="Fill-3" fill="#EDEDED"></path>
                    <path d="M-5.68434189e-14,150.892992 L-5.68434189e-14,11.0942326 C-5.68434189e-14,4.96710078 4.9679845,0.000589147287 11.0951163,0.000589147287 L90.764031,0.000589147287 C96.8911628,0.000589147287 101.859147,4.96710078 101.859147,11.0942326 L101.859147,150.892992" id="Stroke-4" stroke="#000000" stroke-width="4" stroke-linejoin="round"></path>
                    <path d="M24.269186,0.99124031 C24.269186,3.53782946 26.3326744,5.6027907 28.8792636,5.6027907 L72.9784109,5.6027907 C75.525,5.6027907 77.5899612,3.53782946 77.5899612,0.99124031 L77.5899612,3.4861003e-13 L24.269186,3.4861003e-13 L24.269186,0.99124031 Z" id="Fill-6" fill="#000000"></path>
                    <path d="M24.269186,0.99124031 C24.269186,3.53782946 26.3326744,5.6027907 28.8792636,5.6027907 L72.9784109,5.6027907 C75.525,5.6027907 77.5899612,3.53782946 77.5899612,0.99124031 L77.5899612,3.4861003e-13 L24.269186,3.4861003e-13 L24.269186,0.99124031 Z" id="Stroke-7" stroke="#000000" stroke-width="3.8927907" stroke-linecap="round" stroke-linejoin="round"></path>
                    <path d="M85.3183953,127.491178 L16.5398682,127.491178 C13.8533566,127.491178 11.6749845,125.312806 11.6749845,122.624822 L11.6749845,46.0224186 C11.6749845,43.3344341 13.8533566,41.1575349 16.5398682,41.1575349 L85.3183953,41.1575349 C88.0063798,41.1575349 90.1847519,43.3344341 90.1847519,46.0224186 L90.1847519,122.624822 C90.1847519,125.312806 88.0063798,127.491178 85.3183953,127.491178" id="Fill-8" fill="#FFFFFF"></path>
                    <path d="M77.1176124,113.53914 L24.7409457,113.53914 C23.128155,113.53914 21.8217209,112.231233 21.8217209,110.619915 L21.8217209,101.572085 C21.8217209,99.9592946 23.128155,98.6543333 24.7409457,98.6543333 L77.1176124,98.6543333 C78.7304031,98.6543333 80.0368372,99.9592946 80.0368372,101.572085 L80.0368372,110.619915 C80.0368372,112.231233 78.7304031,113.53914 77.1176124,113.53914" id="Fill-9" fill="#2CDB61"></path>
                </g>
            </g>
        </g>
    </g>
</svg>