<?xml version="1.0" encoding="UTF-8"?>
<svg width="380px" height="250px" viewBox="0 0 380 250" version="1.1" xmlns="http://www.w3.org/2000/svg" xmlns:xlink="http://www.w3.org/1999/xlink">
    <title>ldsm/component/img_banner@2x</title>
    <g id="LDSM_PC" stroke="none" stroke-width="1" fill="none" fill-rule="evenodd">
        <g id="LDSM_4_overview_component_pc-Copy" transform="translate(-399.000000, -2493.000000)">
            <g id="ldsm/component/img_banner" transform="translate(399.000000, 2493.000000)">
                <polygon id="Stroke-1" points="0 250 380 250 380 0 0 0"></polygon>
                <g id="Group-3" transform="translate(120.000000, 61.000000)">
                    <path d="M11.8994496,54.487876 L11.8994496,81.4958605 C11.8994496,84.0321395 13.9555736,86.0867907 16.4918527,86.0867907 L122.881543,86.0867907 C125.417822,86.0867907 127.473946,84.0321395 127.473946,81.4958605 L127.473946,54.487876 C127.473946,51.9515969 125.417822,49.8954729 122.881543,49.8954729 L16.4918527,49.8954729 C13.9555736,49.8954729 11.8994496,51.9515969 11.8994496,54.487876" id="Fill-3" fill="#2CDB61"></path>
                    <path d="M102.300271,67.9909845 C102.300271,64.1541628 105.410969,61.0434651 109.249264,61.0434651 C113.086085,61.0434651 116.196783,64.1541628 116.196783,67.9909845 C116.196783,71.8278062 113.086085,74.9399767 109.249264,74.9399767 C105.410969,74.9399767 102.300271,71.8278062 102.300271,67.9909845" id="Fill-4" fill="#FFFFFF"></path>
                    <line x1="22.405124" y1="67.9909845" x2="77.1472171" y2="67.9909845" id="Stroke-5" stroke="#FFFFFF" stroke-width="2.94573643"></line>
                    <path d="M1.42108547e-14,127.039597 L1.42108547e-14,14.5978915 C1.42108547e-14,6.53688372 6.53511628,0.000294573644 14.5990698,0.000294573644 L125.341085,0.000294573644 C133.403566,0.000294573644 139.940155,6.53688372 139.940155,14.5978915 L139.940155,127.039597" id="Stroke-6" stroke="#000000" stroke-width="4" stroke-linejoin="round"></path>
                    <path d="M33.3423488,1.3624031 C33.3423488,4.86193798 36.1776202,7.69868217 39.677155,7.69868217 L100.263589,7.69868217 C103.761651,7.69868217 106.598395,4.86193798 106.598395,1.3624031 L106.598395,4.21884749e-14 L33.3423488,4.21884749e-14 L33.3423488,1.3624031 Z" id="Fill-7" fill="#000000"></path>
                    <path d="M33.3423488,1.3624031 C33.3423488,4.86193798 36.1776202,7.69868217 39.677155,7.69868217 L100.263589,7.69868217 C103.761651,7.69868217 106.598395,4.86193798 106.598395,1.3624031 L106.598395,4.21884749e-14 L33.3423488,4.21884749e-14 L33.3423488,1.3624031 Z" id="Stroke-8" stroke="#000000" stroke-width="3.8927907" stroke-linejoin="round"></path>
                </g>
            </g>
        </g>
    </g>
</svg>