<?xml version="1.0" encoding="UTF-8"?>
<svg width="380px" height="250px" viewBox="0 0 380 250" version="1.1" xmlns="http://www.w3.org/2000/svg" xmlns:xlink="http://www.w3.org/1999/xlink">
    <title>ldsm/component/img_checkbox@2x</title>
    <g id="LDSM_PC" stroke="none" stroke-width="1" fill="none" fill-rule="evenodd">
        <g id="LDSM_4_overview_component_pc-Copy" transform="translate(-1399.000000, -1006.000000)">
            <g id="ldsm/component/img_checkbox" transform="translate(1399.000000, 1006.000000)">
                <polygon id="Fill-1" points="0 250 380 250 380 0 0 0"></polygon>
                <g id="Group-32" transform="translate(136.000000, 45.000000)">
                    <g id="Group-5">
                        <path d="M0.40445641,159.202364 L0.40445641,11.8739282 C0.40445641,5.4163641 5.6392,0.181620513 12.0967641,0.181620513 L96.0572769,0.181620513 C102.514354,0.181620513 107.749585,5.4163641 107.749585,11.8739282 L107.749585,159.202364" id="Fill-2" fill="#FFFFFF"></path>
                        <path d="M0.40445641,159.202364 L0.40445641,11.8739282 C0.40445641,5.4163641 5.6392,0.181620513 12.0967641,0.181620513 L96.0572769,0.181620513 C102.514354,0.181620513 107.749585,5.4163641 107.749585,11.8739282 L107.749585,159.202364" id="Stroke-4" stroke="#000000" stroke-width="4" stroke-linejoin="round"></path>
                    </g>
                    <path d="M25.9803564,1.22671795 C25.9803564,3.91058974 28.1561,6.08584615 30.8394846,6.08584615 L77.3139718,6.08584615 C79.9978436,6.08584615 82.1735872,3.91058974 82.1735872,1.22671795 L82.1735872,0.181230769 L25.9803564,0.181230769 L25.9803564,1.22671795 Z" id="Fill-6" fill="#000000"></path>
                    <path d="M25.9803564,1.22671795 C25.9803564,3.91058974 28.1561,6.08584615 30.8394846,6.08584615 L77.3139718,6.08584615 C79.9978436,6.08584615 82.1735872,3.91058974 82.1735872,1.22671795 L82.1735872,0.181230769 L25.9803564,0.181230769 L25.9803564,1.22671795 Z" id="Stroke-8" stroke="#000000" stroke-width="3.8974359" stroke-linejoin="round"></path>
                    <path d="M50.0904795,81.0779692 L7.85835128,81.0779692 C6.43822308,81.0779692 5.2763,79.9160462 5.2763,78.4959179 L5.2763,36.2637897 C5.2763,34.8436615 6.43822308,33.6817385 7.85835128,33.6817385 L50.0904795,33.6817385 C51.5106077,33.6817385 52.6725308,34.8436615 52.6725308,36.2637897 L52.6725308,78.4959179 C52.6725308,79.9160462 51.5106077,81.0779692 50.0904795,81.0779692" id="Fill-10" fill="#F0F0F2"></path>
                    <path d="M100.295592,81.0779692 L58.0634641,81.0779692 C56.6433359,81.0779692 55.4814128,79.9160462 55.4814128,78.4959179 L55.4814128,36.2637897 C55.4814128,34.8436615 56.6433359,33.6817385 58.0634641,33.6817385 L100.295592,33.6817385 C101.715721,33.6817385 102.877644,34.8436615 102.877644,36.2637897 L102.877644,78.4959179 C102.877644,79.9160462 101.715721,81.0779692 100.295592,81.0779692" id="Fill-12" fill="#F0F0F2"></path>
                    <path d="M52.6724333,86.4688538 L52.6724333,128.700982 C52.6724333,130.12111 51.5105103,131.283033 50.0903821,131.283033 L7.85825385,131.283033 C6.43812564,131.283033 5.27620256,130.12111 5.27620256,128.700982 L5.27620256,86.4688538 C5.27620256,85.0487256 6.43812564,83.8868026 7.85825385,83.8868026 L50.0903821,83.8868026 C51.5105103,83.8868026 52.6724333,85.0487256 52.6724333,86.4688538" id="Fill-14" fill="#F0F0F2"></path>
                    <path d="M102.877497,86.4688538 L102.877497,128.700982 C102.877497,130.12111 101.715574,131.283033 100.295446,131.283033 L58.0633179,131.283033 C56.6431897,131.283033 55.4812667,130.12111 55.4812667,128.700982 L55.4812667,86.4688538 C55.4812667,85.0487256 56.6431897,83.8868026 58.0633179,83.8868026 L100.295446,83.8868026 C101.715574,83.8868026 102.877497,85.0487256 102.877497,86.4688538" id="Fill-16" fill="#F0F0F2"></path>
                    <path d="M48.048759,45.0135821 C48.048759,48.7673 45.0058359,51.8097359 41.2526051,51.8097359 C37.4988872,51.8097359 34.4559641,48.7673 34.4559641,45.0135821 C34.4559641,41.2598641 37.4988872,38.2174282 41.2526051,38.2174282 C45.0058359,38.2174282 48.048759,41.2598641 48.048759,45.0135821" id="Fill-18" fill="#2CDB61"></path>
                    <polyline id="Stroke-20" stroke="#FFFFFF" stroke-width="1.07179487" points="44.3964718 43.0695897 40.5536 46.9124615 38.1084462 44.4668205"></polyline>
                    <path d="M98.3636333,45.0135821 C98.3636333,48.7673 95.3207103,51.8097359 91.5674795,51.8097359 C87.8137615,51.8097359 84.7708385,48.7673 84.7708385,45.0135821 C84.7708385,41.2598641 87.8137615,38.2174282 91.5674795,38.2174282 C95.3207103,38.2174282 98.3636333,41.2598641 98.3636333,45.0135821" id="Fill-22" fill="#2CDB61"></path>
                    <polyline id="Stroke-24" stroke="#FFFFFF" stroke-width="1.07179487" points="94.7113462 43.0695897 90.8684744 46.9124615 88.4233205 44.4668205"></polyline>
                    <path d="M48.048759,95.0937821 C48.048759,98.8475 45.0058359,101.889936 41.2526051,101.889936 C37.4988872,101.889936 34.4559641,98.8475 34.4559641,95.0937821 C34.4559641,91.3400641 37.4988872,88.2976282 41.2526051,88.2976282 C45.0058359,88.2976282 48.048759,91.3400641 48.048759,95.0937821" id="Fill-26" fill="#2CDB61"></path>
                    <path d="M98.3636333,95.0937821 C98.3636333,98.8475 95.3207103,101.889936 91.5674795,101.889936 C87.8137615,101.889936 84.7708385,98.8475 84.7708385,95.0937821 C84.7708385,91.3400641 87.8137615,88.2976282 91.5674795,88.2976282 C95.3207103,88.2976282 98.3636333,91.3400641 98.3636333,95.0937821 Z" id="Stroke-28" stroke="#FFFFFF" stroke-width="1.16923077"></path>
                    <polyline id="Stroke-30" stroke="#FFFFFF" stroke-width="1.07179487" points="44.3964718 93.1497897 40.5536 96.9926615 38.1084462 94.5470205"></polyline>
                </g>
            </g>
        </g>
    </g>
</svg>