<?xml version="1.0" encoding="UTF-8"?>
<svg width="380px" height="250px" viewBox="0 0 380 250" version="1.1" xmlns="http://www.w3.org/2000/svg" xmlns:xlink="http://www.w3.org/1999/xlink">
    <title>ldsm/component/img_bottmnavigation@2x</title>
    <g id="LDSM_PC" stroke="none" stroke-width="1" fill="none" fill-rule="evenodd">
        <g id="LDSM_4_overview_component_pc-Copy" transform="translate(-399.000000, -3767.000000)">
            <g id="ldsm/component/img_bottmnavigation" transform="translate(399.000000, 3767.000000)">
                <polygon id="Stroke-1" points="0 250 380 250 380 0 0 0"></polygon>
                <g id="Group-34" transform="translate(120.000000, 61.000000)">
                    <path d="M140.222946,1.84741111e-13 L140.222946,107.573876 C140.222946,112.949845 135.866202,117.308062 130.490233,117.308062 L9.73271318,117.308062 C4.35674419,117.308062 -5.68434189e-14,112.949845 -5.68434189e-14,107.573876 L-5.68434189e-14,1.84741111e-13" id="Fill-3" fill="#F9F9F9"></path>
                    <path d="M0.000589147287,94.920907 L140.223535,94.920907 L140.223535,112.442147 C140.223535,120.503155 133.686946,127.039744 125.624465,127.039744 L14.598186,127.039744 C6.53570543,127.039744 0.000589147287,120.503155 0.000589147287,112.442147 L0.000589147287,94.920907 Z" id="Fill-4" fill="#FFFFFF"></path>
                    <path d="M25.8002326,109.941512 C25.8002326,113.495543 22.9193023,116.376473 19.3652713,116.376473 C15.8112403,116.376473 12.9303101,113.495543 12.9303101,109.941512 C12.9303101,106.387481 15.8112403,103.50655 19.3652713,103.50655 C22.9193023,103.50655 25.8002326,106.387481 25.8002326,109.941512" id="Fill-5" fill="#2CDB61"></path>
                    <polygon id="Fill-6" fill="#DFDFDF" points="120.857674 102.703837 128.023178 115.114225 113.693643 115.114225"></polygon>
                    <polygon id="Fill-7" fill="#DFDFDF" points="47.314124 115.889101 59.0793953 115.889101 59.0793953 104.123829 47.314124 104.123829"></polygon>
                    <polygon id="Fill-8" fill="#DFDFDF" points="87.0270698 117.49438 94.5136589 110.006318 87.0270698 102.519729 79.5390078 110.006318"></polygon>
                    <path d="M140.081256,2.91322522e-13 L140.081256,112.441705 C140.081256,120.502713 133.54614,127.039302 125.482186,127.039302 L14.7401705,127.039302 C6.67768992,127.039302 0.141100775,120.502713 0.141100775,112.441705 L0.141100775,2.91322522e-13" id="Stroke-9" stroke="#000000" stroke-width="4" stroke-linejoin="round"></path>
                </g>
            </g>
        </g>
    </g>
</svg>