<?xml version="1.0" encoding="UTF-8"?>
<svg width="380px" height="250px" viewBox="0 0 380 250" version="1.1" xmlns="http://www.w3.org/2000/svg" xmlns:xlink="http://www.w3.org/1999/xlink">
    <title>ldsm/component/img_radiobtn@2x</title>
    <g id="LDSM_PC" stroke="none" stroke-width="1" fill="none" fill-rule="evenodd">
        <g id="LDSM_4_overview_component_pc-Copy" transform="translate(-399.000000, -1400.000000)">
            <g id="ldsm/component/img_radiobtn" transform="translate(399.000000, 1400.000000)">
                <polygon id="Fill-1" points="0 250 380 250 380 0 0 0"></polygon>
                <g id="Group-24" transform="translate(119.000000, 61.000000)">
                    <path d="M140.92451,127.739582 L140.92451,15.0228128 C140.92451,6.94050513 134.372433,0.388428205 126.290126,0.388428205 L14.9915359,0.388428205 C6.90922821,0.388428205 0.357638462,6.94050513 0.357638462,15.0228128 L0.357638462,127.739582" id="Fill-2" fill="#FFFFFF"></path>
                    <path d="M140.92451,127.739582 L140.92451,15.0228128 C140.92451,6.94050513 134.372433,0.388428205 126.290126,0.388428205 L15.2750744,0.388428205 C7.19276667,0.388428205 0.641176923,6.94050513 0.641176923,15.0228128 L0.641176923,127.739582" id="Stroke-4" stroke="#000000" stroke-width="4" stroke-linejoin="round"></path>
                    <path d="M107.500685,1.75467436 C107.500685,5.26187949 104.657505,8.10505897 101.1503,8.10505897 L40.4150949,8.10505897 C36.9078897,8.10505897 34.0647103,5.26187949 34.0647103,1.75467436 L34.0647103,0.388623077 L107.500685,0.388623077 L107.500685,1.75467436 Z" id="Fill-6" fill="#000000"></path>
                    <path d="M107.500685,1.75467436 C107.500685,5.26187949 104.657505,8.10505897 101.1503,8.10505897 L40.4150949,8.10505897 C36.9078897,8.10505897 34.0647103,5.26187949 34.0647103,1.75467436 L34.0647103,0.388623077 L107.500685,0.388623077 L107.500685,1.75467436 Z" id="Stroke-8" stroke="#000000" stroke-width="3.8974359" stroke-linejoin="round"></path>
                    <path d="M99.7143872,44.7676051 C99.7143872,48.9247077 103.084208,52.2945282 107.24131,52.2945282 C111.397926,52.2945282 114.768233,48.9247077 114.768233,44.7676051 C114.768233,40.6105026 111.397926,37.2406821 107.24131,37.2406821 C103.084208,37.2406821 99.7143872,40.6105026 99.7143872,44.7676051 Z" id="Stroke-10" stroke="#DFDFDF" stroke-width="1.46153846"></path>
                    <path d="M103.298128,44.7676051 C103.298128,46.9452974 105.063667,48.7108359 107.241359,48.7108359 C109.419051,48.7108359 111.184103,46.9452974 111.184103,44.7676051 C111.184103,42.5899128 109.419051,40.8243744 107.241359,40.8243744 C105.063667,40.8243744 103.298128,42.5899128 103.298128,44.7676051" id="Fill-12" fill="#2CDB61"></path>
                    <line x1="92.613259" y1="44.7676051" x2="31.1823615" y2="44.7676051" id="Stroke-14" stroke="#DFDFDF" stroke-width="2.92307692"></line>
                    <path d="M99.7143872,71.7713308 C99.7143872,75.9284333 103.084208,79.2982538 107.24131,79.2982538 C111.397926,79.2982538 114.768233,75.9284333 114.768233,71.7713308 C114.768233,67.6142282 111.397926,64.2444077 107.24131,64.2444077 C103.084208,64.2444077 99.7143872,67.6142282 99.7143872,71.7713308 Z" id="Stroke-16" stroke="#DFDFDF" stroke-width="1.46153846"></path>
                    <line x1="92.613259" y1="71.7713308" x2="31.1823615" y2="71.7713308" id="Stroke-18" stroke="#DFDFDF" stroke-width="2.92307692"></line>
                    <path d="M99.7143872,98.7750077 C99.7143872,102.93211 103.084208,106.301931 107.24131,106.301931 C111.397926,106.301931 114.768233,102.93211 114.768233,98.7750077 C114.768233,94.6179051 111.397926,91.2480846 107.24131,91.2480846 C103.084208,91.2480846 99.7143872,94.6179051 99.7143872,98.7750077 Z" id="Stroke-20" stroke="#DFDFDF" stroke-width="1.46153846"></path>
                    <line x1="92.613259" y1="98.7750077" x2="31.1823615" y2="98.7750077" id="Stroke-22" stroke="#DFDFDF" stroke-width="2.92307692"></line>
                </g>
            </g>
        </g>
    </g>
</svg>