<?xml version="1.0" encoding="UTF-8"?>
<svg width="380px" height="250px" viewBox="0 0 380 250" version="1.1" xmlns="http://www.w3.org/2000/svg" xmlns:xlink="http://www.w3.org/1999/xlink">
    <title>ldsm/component/img_capsulebtn@2x</title>
    <g id="LDSM_PC" stroke="none" stroke-width="1" fill="none" fill-rule="evenodd">
        <g id="LDSM_4_overview_component_pc-Copy" transform="translate(-899.000000, -1006.000000)">
            <g id="ldsm/component/img_capsulebtn" transform="translate(899.000000, 1006.000000)">
                <polygon id="Fill-1" points="0 250 380 250 380 0 0 0"></polygon>
                <g id="Group-11" transform="translate(119.000000, 61.000000)">
                    <path d="M141.283485,127.35369 L141.283485,14.6369205 C141.283485,6.55461282 134.731408,0.00253589744 126.6491,0.00253589744 L15.3505103,0.00253589744 C7.26820256,0.00253589744 0.716612821,6.55461282 0.716612821,14.6369205 L0.716612821,127.35369" id="Fill-2" fill="#FFFFFF"></path>
                    <polygon id="Fill-4" fill="#F0F0F2" points="1.00010256 127.353641 141.283436 127.353641 141.283436 21.0564359 1.00010256 21.0564359"></polygon>
                    <path d="M141.283485,127.35369 L141.283485,14.6369205 C141.283485,6.55461282 134.731408,0.00253589744 126.6491,0.00253589744 L15.6340487,0.00253589744 C7.55174103,0.00253589744 1.00015128,6.55461282 1.00015128,14.6369205 L1.00015128,127.35369" id="Stroke-6" stroke="#000000" stroke-width="4" stroke-linejoin="round"></path>
                    <path d="M107.859659,1.36873333 C107.859659,4.87593846 105.016479,7.71911795 101.509274,7.71911795 L40.7740692,7.71911795 C37.2668641,7.71911795 34.4236846,4.87593846 34.4236846,1.36873333 L34.4236846,0.00268205128 L107.859659,0.00268205128 L107.859659,1.36873333 Z" id="Fill-7" fill="#000000"></path>
                    <path d="M107.859659,1.36873333 C107.859659,4.87593846 105.016479,7.71911795 101.509274,7.71911795 L40.7740692,7.71911795 C37.2668641,7.71911795 34.4236846,4.87593846 34.4236846,1.36873333 L34.4236846,0.00268205128 L107.859659,0.00268205128 L107.859659,1.36873333 Z" id="Stroke-8" stroke="#000000" stroke-width="3.8974359" stroke-linejoin="round"></path>
                    <path d="M94.2318846,38.7287744 L94.2318846,38.7287744 C94.2318846,31.9828 88.7632949,26.5142103 82.0173205,26.5142103 L60.7533974,26.5142103 C54.0074231,26.5142103 48.5388333,31.9828 48.5388333,38.7287744 L48.5388333,38.7287744 C48.5388333,45.4747487 54.0074231,50.9433385 60.7533974,50.9433385 L82.0173205,50.9433385 C88.7632949,50.9433385 94.2318846,45.4747487 94.2318846,38.7287744" id="Fill-9" fill="#2CDB61"></path>
                    <line x1="59.9437538" y1="38.7287744" x2="82.8270615" y2="38.7287744" id="Stroke-10" stroke="#FFFFFF" stroke-width="2.92307692"></line>
                </g>
            </g>
        </g>
    </g>
</svg>