<?xml version="1.0" encoding="UTF-8"?>
<svg width="312px" height="205px" viewBox="0 0 312 205" version="1.1" xmlns="http://www.w3.org/2000/svg" xmlns:xlink="http://www.w3.org/1999/xlink">
    <title>img_guideline_selection</title>
    <defs>
        <polygon id="path-1" points="0 0 34.3306 0 34.3306 34.331 0 34.331"></polygon>
        <polygon id="path-3" points="0 0 34.3306 0 34.3306 34.331 0 34.331"></polygon>
    </defs>
    <g id="LDSM_PC" stroke="none" stroke-width="1" fill="none" fill-rule="evenodd">
        <g id="5_LDSM_overview_uxguideline_pc" transform="translate(-885.000000, -604.000000)">
            <g id="img_guideline_selection" transform="translate(885.000000, 604.000000)">
                <g id="Group-3" transform="translate(159.755000, 106.648300)">
                    <mask id="mask-2" fill="white">
                        <use xlink:href="#path-1"></use>
                    </mask>
                    <g id="Clip-2"></g>
                    <path d="M31.631,34.331 L2.7,34.331 C1.208,34.331 0,33.122 0,31.631 L0,2.7 C0,1.208 1.208,0 2.7,0 L31.631,0 C33.122,0 34.331,1.208 34.331,2.7 L34.331,31.631 C34.331,33.122 33.122,34.331 31.631,34.331" id="Fill-1" fill="#95F4B7" mask="url(#mask-2)"></path>
                </g>
                <g id="Group-6" transform="translate(159.755000, 64.000000)">
                    <mask id="mask-4" fill="white">
                        <use xlink:href="#path-3"></use>
                    </mask>
                    <g id="Clip-5"></g>
                    <path d="M31.631,34.331 L2.7,34.331 C1.208,34.331 0,33.122 0,31.631 L0,2.7 C0,1.208 1.208,0 2.7,0 L31.631,0 C33.122,0 34.331,1.208 34.331,2.7 L34.331,31.631 C34.331,33.122 33.122,34.331 31.631,34.331" id="Fill-4" fill="#000000" mask="url(#mask-4)"></path>
                </g>
                <path d="M148.631,98.331 L119.7,98.331 C118.208,98.331 117,97.122 117,95.631 L117,66.7 C117,65.208 118.208,64 119.7,64 L148.631,64 C150.122,64 151.331,65.208 151.331,66.7 L151.331,95.631 C151.331,97.122 150.122,98.331 148.631,98.331" id="Fill-7" fill="#1DCC64"></path>
                <path d="M148.631,140.9793 L119.7,140.9793 C118.208,140.9793 117,139.7703 117,138.2793 L117,109.3483 C117,107.8563 118.208,106.6483 119.7,106.6483 L148.631,106.6483 C150.122,106.6483 151.331,107.8563 151.331,109.3483 L151.331,138.2793 C151.331,139.7703 150.122,140.9793 148.631,140.9793" id="Fill-9" fill="#1DCC64"></path>
            </g>
        </g>
    </g>
</svg>