<svg xmlns="http://www.w3.org/2000/svg" width="28.48" height="267.439" viewBox="0 0 28.48 267.439">
  <g id="Group_431" data-name="Group 431" transform="translate(-33.362 -196.605)">
    <path id="Path_7490" data-name="Path 7490" d="M46.839,213.194a9.844,9.844,0,0,1-5.365-5,10.7,10.7,0,0,1-5.793,5.926l-2.32-3.343a9.679,9.679,0,0,0,5.928-9.107v-3.378h4.205v3.444a8.453,8.453,0,0,0,5.664,8.146Zm-7.715,2.418H59.788V226.7H39.124Zm4.3,7.681H55.517v-4.237H43.429Zm16.359-26.688v17.781H55.648v-7.152H53.264v6.821H49.191V197.1h4.073v6.623h2.384v-7.118Z" transform="translate(0 0)"/>
    <path id="Path_7491" data-name="Path 7491" d="M61.26,237.754v3.51H33.609v-3.51h6.822v-5.728h-4.47v-3.443h3.973v-8.577H35.8v-3.476H58.974v3.476H54.835v8.577h4.073v3.443H54.372v5.728Zm-16.989-9.171H50.5v-8.577H44.271Zm.5,9.171h5.264v-5.728H44.77Z" transform="translate(0.15 12.127)"/>
    <path id="Path_7492" data-name="Path 7492" d="M61.248,253.643H49.525v9.967H45.154v-9.967H33.63v-3.51H61.248Zm-24.9-12.683c0-4.139,4.5-6.855,11.027-6.855,6.489,0,11.026,2.715,11.026,6.855,0,4.207-4.536,6.888-11.026,6.888C40.848,247.849,36.345,245.167,36.345,240.961Zm4.47,0c0,2.218,2.55,3.41,6.557,3.41,3.973,0,6.523-1.192,6.523-3.41,0-2.186-2.55-3.377-6.523-3.377C43.366,237.584,40.816,238.774,40.816,240.961Z" transform="translate(0.163 22.826)"/>
    <path id="Path_7493" data-name="Path 7493" d="M39.122,271.791A76.514,76.514,0,0,0,51.9,270.8l.463,3.542A83.644,83.644,0,0,1,37.4,275.4H34.652V262.85h9.9v-4.868H34.618v-3.476h14.4v11.788h-9.9Zm19.272-19.9v30.6H54.023v-30.6Z" transform="translate(0.764 33.65)"/>
    <path id="Path_7494" data-name="Path 7494" d="M48.624,286.559H34.186V272.452H48.624Zm1.158,3.277c0,3.312,3.013,6.623,9.5,7.551l-1.623,3.377c-4.834-.727-8.246-2.781-10.065-5.595-1.821,2.813-5.231,4.868-10.035,5.595l-1.689-3.377c6.525-.928,9.538-4.239,9.538-7.551v-.761h4.371Zm-5.465-13.907H38.459v7.186h5.859Zm17.023,2.053v3.576H57.3v8.907H52.929V270.332H57.3v7.649Z" transform="translate(0.502 44.875)"/>
    <path id="Path_7495" data-name="Path 7495" d="M47.884,303.927a8.2,8.2,0,0,1-5.992,2.484,7.9,7.9,0,1,1,0-15.8,8.132,8.132,0,0,1,5.926,2.418h6.789V288.8h4.372v22.317H54.606v-7.186ZM41.891,302.6a4.1,4.1,0,1,0-3.875-4.107A3.792,3.792,0,0,0,41.891,302.6Zm17.781,12.683v3.476h-20.8v-9.834h4.371v6.357ZM49.706,296.51a9.654,9.654,0,0,1,.23,1.987,7.585,7.585,0,0,1-.23,1.955h4.9V296.51Z" transform="translate(0.313 56.113)"/>
    <path id="Path_7496" data-name="Path 7496" d="M61.2,324.818H49.479V337.07H45.042V324.818H33.651v-3.51H52.857a45.969,45.969,0,0,0,.828-9.47H36.8v-3.51H57.956v2.749a53.1,53.1,0,0,1-.762,10.231H61.2Z" transform="translate(0.176 68.002)"/>
    <path id="Path_7497" data-name="Path 7497" d="M49.591,342.521v2.252c5.231.43,8.344,2.318,8.344,5.431,0,3.508-4.007,5.529-10.6,5.529s-10.562-2.02-10.562-5.529c0-3.147,3.145-5.034,8.444-5.465v-2.218H33.63v-3.476H61.18v3.476Zm-14.769-8.047c5.664-.5,8.643-2.482,9.4-4.536h-8.08v-3.476H58.7v3.476H50.584c.763,2.054,3.742,4.039,9.438,4.536L58.5,337.853c-5.728-.5-9.47-2.65-11.093-5.531-1.622,2.881-5.363,5.034-11.126,5.531Zm12.517,13.51c-4.073,0-6.16.663-6.16,2.22,0,1.523,2.086,2.185,6.16,2.185s6.16-.661,6.16-2.185C53.5,348.647,51.412,347.984,47.339,347.984Z" transform="translate(0.163 79.039)"/>
    <path id="Path_7498" data-name="Path 7498" d="M50.27,360.281a11.33,11.33,0,0,1-7.152-5.794,12.019,12.019,0,0,1-7.451,6.357L33.548,357.4c5.1-1.589,7.284-5.463,7.284-9.2v-2.947H45.27V348.2c0,3.676,2.152,7.252,7.085,8.676Zm-11.557,2.484h20.3v11.491h-20.3Zm4.3,8.08H54.741v-4.67H43.018Zm15.993-26.723v17.219h-4.4V344.122Z" transform="translate(0.113 89.788)"/>
  </g>
</svg>
